<svg width="24" height="22" viewBox="0 0 24 22" fill="none" xmlns="http://www.w3.org/2000/svg">
<path fill-rule="evenodd" clip-rule="evenodd" d="M11.228 2H19.569C20.6736 2 21.569 2.89543 21.569 4V17.9974C21.569 19.102 20.6736 19.9975 19.569 19.9975H11.228C10.1235 19.9975 9.22803 19.102 9.22803 17.9975V15.7125H7.22803V17.9975C7.22803 20.2066 9.01889 21.9975 11.228 21.9975H19.569C21.7781 21.9975 23.569 20.2066 23.569 17.9974V4C23.569 1.79086 21.7781 0 19.569 0H11.228C9.01889 0 7.22803 1.79086 7.22803 4V6.28502H9.22803V4C9.22803 2.89543 10.1235 2 11.228 2Z" fill="black"/>
<path d="M0 10.9988H15.084" stroke="black" stroke-width="2"/>
<path d="M11.5065 6.47852L16.0266 10.9986L11.5034 15.5186" stroke="black" stroke-width="2"/>
</svg>
