<svg width="24" height="22" viewBox="0 0 24 22" fill="none" xmlns="http://www.w3.org/2000/svg">
<path d="M6.08424 3.45571H22.7074C22.8056 3.45571 22.8773 3.54841 22.8526 3.6434L21.3226 9.53734C21.3054 9.60348 21.2457 9.64965 21.1774 9.64965H7.61425C7.54593 9.64965 7.48624 9.60348 7.46907 9.53734L5.93905 3.6434C5.91439 3.54841 5.9861 3.45571 6.08424 3.45571Z" stroke="black" stroke-width="1.7"/>
<path d="M5.02672 1L5.84703 0.777325C5.74652 0.407041 5.4104 0.15 5.02672 0.15V1ZM8.60712 14.1899L7.78681 14.4126C7.88732 14.7829 8.22344 15.0399 8.60712 15.0399V14.1899ZM0.999984 0.15C0.530542 0.15 0.149984 0.530558 0.149984 1C0.149984 1.46944 0.530542 1.85 0.999984 1.85V0.15ZM20.7245 15.0399C21.194 15.0399 21.5745 14.6593 21.5745 14.1899C21.5745 13.7205 21.194 13.3399 20.7245 13.3399V15.0399ZM4.2064 1.22267L7.78681 14.4126L9.42744 13.9672L5.84703 0.777325L4.2064 1.22267ZM0.999984 1.85H5.02672V0.15H0.999984V1.85ZM8.60712 15.0399H20.7245V13.3399H8.60712V15.0399Z" fill="black"/>
<circle cx="10.9386" cy="19.1693" r="1.97824" stroke="black" stroke-width="1.7"/>
<circle cx="18.4806" cy="19.1693" r="1.97824" stroke="black" stroke-width="1.7"/>
</svg>
