<svg width="19" height="22" viewBox="0 0 19 22" fill="none" xmlns="http://www.w3.org/2000/svg">
<circle cx="9.56481" cy="4.71374" r="3.71374" stroke="black" stroke-width="2"/>
<mask id="path-2-inside-1" fill="white">
<path d="M0.137207 18.313C0.137207 14.447 3.27121 11.313 7.13721 11.313H11.9922C15.8582 11.313 18.9922 14.447 18.9922 18.313V20.9975C18.9922 21.5497 18.5444 21.9975 17.9922 21.9975H1.13721C0.584921 21.9975 0.137207 21.5497 0.137207 20.9975V18.313Z"/>
</mask>
<path d="M0.137207 18.313C0.137207 14.447 3.27121 11.313 7.13721 11.313H11.9922C15.8582 11.313 18.9922 14.447 18.9922 18.313V20.9975C18.9922 21.5497 18.5444 21.9975 17.9922 21.9975H1.13721C0.584921 21.9975 0.137207 21.5497 0.137207 20.9975V18.313Z" stroke="black" stroke-width="4" mask="url(#path-2-inside-1)"/>
</svg>
