<?xml version="1.0" standalone="no"?>
  <!DOCTYPE svg PUBLIC "-//W3C//DTD SVG 1.1//EN" "http://www.w3.org/Graphics/SVG/1.1/DTD/svg11.dtd" >
  <svg>
  <metadata>
  Created by font-carrier
  </metadata>
  <defs>
  <font id="FuturaLightC" horiz-adv-x="984" vert-adv-y="984" >
    <font-face
      
      font-family="FuturaLightC"
      
      font-weight="400"
      
      font-stretch="normal"
      
      units-per-em="1000"
      
      ascent="729"
      
      descent="-239"
      
    />
      <missing-glyph />

      

      
      <glyph glyph-name="uni21" unicode="&#x21;" d="M152 119L108 119L108 667L152 667L152 119M103.50 3.50Q103.50 3.50 98.25 8.75Q93 14 93 30Q93 46 103.50 56.50Q114 67 130 67Q146 67 156.50 56.50Q167 46 167 30Q167 14 156.50 3.50Q146-7 130-7Q114-7 103.50 3.50Z"  horiz-adv-x="260" vert-adv-y="1000"  />

      
      <glyph glyph-name="uni22" unicode="&#x22;" d="M104 667L97 398L67 398L60 667L104 667M220 667L213 398L183 398L176 667L220 667Z"  horiz-adv-x="280" vert-adv-y="1000"  />

      
      <glyph glyph-name="uni23" unicode="&#x23;" d="M375 0L335 0L368 221L204 221L171 0L131 0L164 221L46 221L52 259L170 259L194 420L76 420L82 458L200 458L232 667L272 667L240 458L404 458L436 667L476 667L444 458L562 458L556 420L438 420L414 259L532 259L526 221L408 221L375 0M374 259L398 420L234 420L210 259L374 259Z"  horiz-adv-x="600" vert-adv-y="1000"  />

      
      <glyph glyph-name="uni24" unicode="&#x24;" d="M425 581L393 554Q388 566 379.50 579Q371 592 345.50 611.50Q320 631 289 636L289 366Q359 334 388 313Q459 264 459 184Q459 116 412 60Q365 4 289-8L289-107L249-107L249-11Q156-11 96 59Q67 93 53 132L91 150Q103 114 127 86Q171 31 249 29L249 339L224 351Q176 374 152 391.50Q128 409 113 434Q92 469 92 510Q92 578 136 625.50Q180 673 249 676L249 765L289 765L289 676Q382 665 425 581M289 319L289 32Q345 44 379 87Q413 130 413 183Q413 248 348 288Q346 289 340 292.50Q334 296 321 303Q308 310 289 319M249 386L249 636Q198 633 168 596Q138 559 138 512Q138 468 165 438.50Q192 409 249 386Z"  horiz-adv-x="512" vert-adv-y="1000"  />

      
      <glyph glyph-name="uni25" unicode="&#x25;" d="M71 636Q71 636 89.50 654.50Q108 673 169 673Q230 673 267 636Q304 599 304 542Q304 485 267 448Q230 411 169 411Q108 411 71 448Q34 485 34 542Q34 599 71 636M99 476Q99 476 111.50 461.50Q124 447 169 447Q214 447 239 476Q264 505 264 542Q264 579 239 608Q214 637 169 637Q124 637 99 608Q74 579 74 542Q74 505 99 476M92 1L486 682L516 666L122-15L92 1M341 219Q341 219 359.50 237.50Q378 256 439 256Q500 256 537 219Q574 182 574 125Q574 68 537 31Q500-6 439-6Q378-6 341 31Q304 68 304 125Q304 182 341 219M369 59Q369 59 381.50 44.50Q394 30 439 30Q484 30 509 59Q534 88 534 125Q534 162 509 191Q484 220 439 220Q394 220 369 191Q344 162 344 125Q344 88 369 59Z"  horiz-adv-x="608" vert-adv-y="1000"  />

      
      <glyph glyph-name="uni26" unicode="&#x26;" d="M567 259L606 241Q560 178 514 135L614 0L558 0L481 105L469 95Q443 73 425 59.50Q407 46 375 26.50Q343 7 309-3Q275-13 240-13Q164-13 115 36Q66 85 66 159Q66 198 78 231Q90 264 112.50 288.50Q135 313 152.50 327Q170 341 194 356L265 402L238 444Q198 507 198 549Q198 603 236.50 641Q275 679 329 679Q381 679 415.50 643.50Q450 608 450 555Q450 504 411 459Q386 431 326 390L489 170Q523 204 567 259M456 140L289 368L226 327Q165 288 138.50 249.50Q112 211 112 162Q112 103 148 65Q184 27 241 27Q295 27 354.50 62.50Q414 98 456 140M272 470L301 424Q359 457 387 495Q406 520 406 556Q406 594 381.50 615.50Q357 637 325 637Q291 637 266.50 610.50Q242 584 242 546Q242 518 272 470Z"  horiz-adv-x="628" vert-adv-y="1000"  />

      
      <glyph glyph-name="uni27" unicode="&#x27;" d="M104 667L97 398L67 398L60 667L104 667Z"  horiz-adv-x="164" vert-adv-y="1000"  />

      
      <glyph glyph-name="uni28" unicode="&#x28;" d="M170 743L208 720Q146 513 146 285Q146 59 208-151L168-174Q100 20 100 285Q100 543 170 743Z"  horiz-adv-x="278" vert-adv-y="1000"  />

      
      <glyph glyph-name="uni29" unicode="&#x29;" d="M70 720L108 743Q178 543 178 285Q178 20 110-174L70-151Q132 59 132 285Q132 513 70 720Z"  horiz-adv-x="278" vert-adv-y="1000"  />

      
      <glyph glyph-name="uni2a" unicode="&#x2a;" d="M130 640L255 596L252 729L296 729L293 596L418 640L432 599L304 561L385 455L350 430L274 540L198 430L163 455L244 561L116 599L130 640Z"  horiz-adv-x="548" vert-adv-y="1000"  />

      
      <glyph glyph-name="uni2b" unicode="&#x2b;" d="M33 310L33 348L230 348L230 530L270 530L270 348L467 348L467 310L270 310L270 128L230 128L230 310L33 310Z"  horiz-adv-x="500" vert-adv-y="1000"  />

      
      <glyph glyph-name="uni2c" unicode="&#x2c;" d="M38-137L98 65L138 53L64-147L38-137Z"  horiz-adv-x="228" vert-adv-y="1000"  />

      
      <glyph glyph-name="uni2d" unicode="&#x2d;" d="M40 184L40 230L240 230L240 184L40 184Z"  horiz-adv-x="280" vert-adv-y="1000"  />

      
      <glyph glyph-name="uniad" unicode="&#xad;" d="M40 184L40 230L240 230L240 184L40 184Z"  horiz-adv-x="280" vert-adv-y="1000"  />

      
      <glyph glyph-name="uni2e" unicode="&#x2e;" d="M74.50 3.50Q74.50 3.50 69.25 8.75Q64 14 64 30Q64 46 74.50 56.50Q85 67 101 67Q117 67 127.50 56.50Q138 46 138 30Q138 14 127.50 3.50Q117-7 101-7Q85-7 74.50 3.50Z"  horiz-adv-x="202" vert-adv-y="1000"  />

      
      <glyph glyph-name="uni2f" unicode="&#x2f;" d="M20-158L524 743L556 727L52-174L20-158Z"  horiz-adv-x="576" vert-adv-y="1000"  />

      
      <glyph glyph-name="uni30" unicode="&#x30;" d="M117 595Q184 676 274 676Q364 676 431 595Q516 494 516 333Q516 172 431 71Q362-11 274-11Q186-11 117 71Q32 172 32 333Q32 494 117 595M150 97Q205 29 274 29Q343 29 398 97Q470 186 470 333Q470 480 398 569Q344 636 274 636Q204 636 150 569Q78 480 78 333Q78 186 150 97Z"  horiz-adv-x="548" vert-adv-y="1000"  />

      
      <glyph glyph-name="uni31" unicode="&#x31;" d="M272 0L272 627L168 627L188 667L316 667L316 0L272 0Z"  horiz-adv-x="548" vert-adv-y="1000"  />

      
      <glyph glyph-name="uni32" unicode="&#x32;" d="M471 0L60 0L316 282Q369 342 389 372Q428 432 428 486Q428 550 384.50 593Q341 636 273 636Q201 636 158 587Q118 543 119 478L75 478Q74 562 128 618Q184 676 276 676Q362 676 418 621.50Q474 567 474 486Q474 415 426 349Q403 317 367 277L153 40L471 40L471 0Z"  horiz-adv-x="548" vert-adv-y="1000"  />

      
      <glyph glyph-name="uni33" unicode="&#x33;" d="M76 162L120 162Q122 123 142 91Q161 64 194 46.50Q227 29 260 29Q321 29 365.50 75Q410 121 410 184Q410 266 347 306Q311 329 262 326L262 366Q316 366 352 397Q401 438 401 506Q401 562 367 599Q333 636 273 636Q211 636 177 597Q145 562 143 508L101 508Q102 579 150 628Q197 676 273 676Q353 676 400 628Q447 580 447 509Q447 459 422 414.50Q397 370 342 348Q395 331 425.50 287Q456 243 456 185Q456 102 399 45.50Q342-11 260-11Q213-11 169 12Q125 35 100 76Q76 115 76 162Z"  horiz-adv-x="548" vert-adv-y="1000"  />

      
      <glyph glyph-name="uni34" unicode="&#x34;" d="M415 689L415 167L508 167L508 127L415 127L415 0L371 0L371 127L12 127L415 689M90 167L371 167L371 559L90 167Z"  horiz-adv-x="548" vert-adv-y="1000"  />

      
      <glyph glyph-name="uni35" unicode="&#x35;" d="M470 667L470 627L246 627L190 447Q214 453 235 453Q340 453 403.50 388Q467 323 467 222Q467 117 398.50 53Q330-11 230-11Q94-11 30 99L69 115Q127 29 231 29Q314 29 367.50 83Q421 137 421 221Q421 306 368.50 359.50Q316 413 233 413Q176 413 129 384L215 667L470 667Z"  horiz-adv-x="548" vert-adv-y="1000"  />

      
      <glyph glyph-name="uni36" unicode="&#x36;" d="M301 676L335 650L187 440Q230 458 278 458Q378 458 444 392Q510 326 510 225Q510 124 443 56.50Q376-11 272-11Q170-11 103 55.50Q36 122 36 226Q36 299 79 362L301 676M136.50 84.50Q136.50 84.50 163.75 56.75Q191 29 273 29Q355 29 409.50 85Q464 141 464 224Q464 309 410 363.50Q356 418 273 418Q190 418 136 363Q82 308 82 224Q82 140 136.50 84.50Z"  horiz-adv-x="548" vert-adv-y="1000"  />

      
      <glyph glyph-name="uni37" unicode="&#x37;" d="M22 14L454 627L49 627L49 667L532 667L55-11L22 14Z"  horiz-adv-x="548" vert-adv-y="1000"  />

      
      <glyph glyph-name="uni38" unicode="&#x38;" d="M358 346Q410 326 438.50 280Q467 234 467 177Q467 92 411 40.50Q355-11 274-11Q193-11 137 40.50Q81 92 81 177Q81 234 109.50 280Q138 326 190 346Q97 395 97 500Q97 575 148 625.50Q199 676 274 676Q349 676 400 625.50Q451 575 451 500Q451 395 358 346M181.50 403.50Q181.50 403.50 200.75 384.25Q220 365 274 365Q328 365 366.50 403.50Q405 442 405 500Q405 559 367 597.50Q329 636 274 636Q219 636 181 597.50Q143 559 143 500Q143 442 181.50 403.50M167.50 71.50Q167.50 71.50 187.75 50.25Q208 29 274 29Q340 29 380.50 71.50Q421 114 421 177Q421 243 380 285Q339 327 274 327Q209 327 168 285Q127 243 127 177Q127 114 167.50 71.50Z"  horiz-adv-x="548" vert-adv-y="1000"  />

      
      <glyph glyph-name="uni39" unicode="&#x39;" d="M247-11L213 15L361 226Q318 208 270 208Q170 208 104 274Q38 340 38 441Q38 542 105 609Q172 676 276 676Q378 676 445 609Q512 542 512 440Q512 367 469 304L247-11M411.50 580.50Q411.50 580.50 384.25 608.25Q357 636 275 636Q193 636 138.50 580Q84 524 84 442Q84 357 138.50 302.50Q193 248 275 248Q358 248 412 303Q466 358 466 442Q466 525 411.50 580.50Z"  horiz-adv-x="548" vert-adv-y="1000"  />

      
      <glyph glyph-name="uni3a" unicode="&#x3a;" d="M74.50 353.50Q74.50 353.50 69.25 358.75Q64 364 64 380Q64 396 74.50 406.50Q85 417 101 417Q117 417 127.50 406.50Q138 396 138 380Q138 364 127.50 353.50Q117 343 101 343Q85 343 74.50 353.50M74.50 3.50Q74.50 3.50 69.25 8.75Q64 14 64 30Q64 46 74.50 56.50Q85 67 101 67Q117 67 127.50 56.50Q138 46 138 30Q138 14 127.50 3.50Q117-7 101-7Q85-7 74.50 3.50Z"  horiz-adv-x="202" vert-adv-y="1000"  />

      
      <glyph glyph-name="uni3b" unicode="&#x3b;" d="M76.50 353.50Q76.50 353.50 71.25 358.75Q66 364 66 380Q66 396 76.50 406.50Q87 417 103 417Q119 417 129.50 406.50Q140 396 140 380Q140 364 129.50 353.50Q119 343 103 343Q87 343 76.50 353.50M38-137L98 65L138 53L64-147L38-137Z"  horiz-adv-x="228" vert-adv-y="1000"  />

      
      <glyph glyph-name="uni3c" unicode="&#x3c;" d="M33 347L467 539L467 498L77 328L467 158L467 117L33 309L33 347Z"  horiz-adv-x="500" vert-adv-y="1000"  />

      
      <glyph glyph-name="uni3d" unicode="&#x3d;" d="M33 381L33 419L467 419L467 381L33 381M33 239L33 277L467 277L467 239L33 239Z"  horiz-adv-x="500" vert-adv-y="1000"  />

      
      <glyph glyph-name="uni3e" unicode="&#x3e;" d="M467 309L33 117L33 158L423 328L33 498L33 539L467 347L467 309Z"  horiz-adv-x="500" vert-adv-y="1000"  />

      
      <glyph glyph-name="uni3f" unicode="&#x3f;" d="M330 257L370 257Q370 204 349 169Q315 111 235 111Q173 111 134 147Q94 184 94 248Q94 310 138 347Q165 370 220 383Q222 384 233.50 386.50Q245 389 248 390Q251 391 261 393.50Q271 396 275 398Q279 400 287.50 403Q296 406 300.50 409.50Q305 413 310.50 417.50Q316 422 321 427Q346 456 346 509Q346 566 316 599Q285 633 231 633Q177 633 146 599Q118 569 118 509Q118 489 125 469L81 469Q74 491 74 515Q74 589 118 631Q163 673 234 673Q308 673 351 628Q392 586 392 511Q392 446 356 405Q324 370 267 354Q259 352 241.50 347.50Q224 343 214.50 340Q205 337 192.50 332Q180 327 172 320Q138 293 138 246Q138 205 163 178Q190 149 234 149Q288 149 313 185Q330 209 330 257M207.50 3.50Q207.50 3.50 202.25 8.75Q197 14 197 30Q197 46 207.50 56.50Q218 67 234 67Q250 67 260.50 56.50Q271 46 271 30Q271 14 260.50 3.50Q250-7 234-7Q218-7 207.50 3.50Z"  horiz-adv-x="466" vert-adv-y="1000"  />

      
      <glyph glyph-name="uni40" unicode="&#x40;" d="M489 413L504 491L536 491L493 269Q486 237 486 220Q486 199 498 183Q510 167 533 167Q585 167 623.50 230Q662 293 662 378Q662 497 580 570.50Q498 644 377 644Q245 644 155.50 554Q66 464 66 333Q66 237 116.50 156Q167 75 254 41Q315 17 393 17Q502 17 578 55Q607 69 615 73L627 44Q569 14 508 0Q449-13 392-13Q235-13 133.50 84Q32 181 32 331Q32 476 132 575Q232 674 377 674Q508 674 600 591.50Q692 509 692 378Q692 277 642.50 208Q593 139 532 139Q500 139 479.50 159.50Q459 180 461 212Q441 176 407 156.50Q373 137 335 137Q272 137 234 183.50Q196 230 196 298Q196 383 245.50 443.50Q295 504 371 504Q382 504 393 502Q404 500 425.50 493Q447 486 464 465.50Q481 445 489 413M340 169Q394 169 432.50 220.50Q471 272 471 356Q471 371 468.50 385.50Q466 400 457.50 422.50Q449 445 427.50 458.50Q406 472 374 472Q309 472 270 420.50Q231 369 231 299Q231 238 263.50 203.50Q296 169 340 169Z"  horiz-adv-x="732" vert-adv-y="1000"  />

      
      <glyph glyph-name="uni41" unicode="&#x41;" d="M524 0L435 219L151 219L62 0L14 0L295 687L572 0L524 0M167 259L419 259L294 575L167 259Z"  horiz-adv-x="586" vert-adv-y="1000"  />

      
      <glyph glyph-name="uni42" unicode="&#x42;" d="M90 0L90 667L236 667Q322 667 371 621.50Q420 576 420 500Q420 402 342 354Q406 344 443 298Q480 252 480 187Q480 101 422.50 50.50Q365 0 273 0L90 0M134 627L134 365L240 365Q297 365 331 393Q375 429 375 495Q375 562 330 599Q294 627 219 627L134 627M134 325L134 40L246 40Q277 40 295 41.50Q313 43 341.50 52Q370 61 391 80Q434 118 434 182Q434 273 363 306Q320 325 238 325L134 325Z"  horiz-adv-x="534" vert-adv-y="1000"  />

      
      <glyph glyph-name="uni43" unicode="&#x43;" d="M624 589L624 531Q581 581 522.50 608.50Q464 636 399 636Q272 636 186 547Q100 458 100 330Q100 259 127.50 200Q155 141 199.50 104.50Q244 68 296 48.50Q348 29 400 29Q456 29 516 53.50Q576 78 624 130L624 72Q530-11 402-11Q254-11 154 90Q54 191 54 332Q54 476 155 576Q256 676 400 676Q532 676 624 589Z"  horiz-adv-x="678" vert-adv-y="1000"  />

      
      <glyph glyph-name="uni44" unicode="&#x44;" d="M222 0L90 0L90 667L222 667Q375 667 468 574Q517 525 540.50 460Q564 395 564 333Q564 272 541 207.50Q518 143 468 93Q375 0 222 0M134 627L134 40L221 40Q353 40 435.50 121.50Q518 203 518 333Q518 462 435 544.50Q352 627 221 627L134 627Z"  horiz-adv-x="618" vert-adv-y="1000"  />

      
      <glyph glyph-name="uni45" unicode="&#x45;" d="M410 667L410 627L134 627L134 385L404 385L404 345L134 345L134 40L410 40L410 0L90 0L90 667L410 667Z"  horiz-adv-x="464" vert-adv-y="1000"  />

      
      <glyph glyph-name="uni46" unicode="&#x46;" d="M360 667L360 627L134 627L134 385L354 385L354 345L134 345L134 0L90 0L90 667L360 667Z"  horiz-adv-x="406" vert-adv-y="1000"  />

      
      <glyph glyph-name="uni47" unicode="&#x47;" d="M438 280L438 320L718 320Q718 188 650 101Q562-11 399-11Q251-11 152.50 86Q54 183 54 332Q54 479 154.50 577.50Q255 676 402 676Q517 676 611 604Q657 568 691 520L656 492Q632 533 592 566Q508 636 401 636Q273 636 186.50 547Q100 458 100 330Q100 204 185 116.50Q270 29 398 29Q477 29 538.50 62.50Q600 96 630 142Q670 204 674 280L438 280Z"  horiz-adv-x="772" vert-adv-y="1000"  />

      
      <glyph glyph-name="uni48" unicode="&#x48;" d="M134 667L134 384L538 384L538 667L582 667L582 0L538 0L538 344L134 344L134 0L90 0L90 667L134 667Z"  horiz-adv-x="672" vert-adv-y="1000"  />

      
      <glyph glyph-name="uni49" unicode="&#x49;" d="M90 667L134 667L134 0L90 0L90 667Z"  horiz-adv-x="224" vert-adv-y="1000"  />

      
      <glyph glyph-name="uni4a" unicode="&#x4a;" d="M130 667L174 667L174 2Q174-139 58-139Q-18-139-54-67L-23-43Q6-99 60-99Q130-99 130 2L130 667Z"  horiz-adv-x="264" vert-adv-y="1000"  />

      
      <glyph glyph-name="uni4b" unicode="&#x4b;" d="M134 667L134 353L449 667L507 667L184 348L526 0L466 0L152 318L134 301L134 0L90 0L90 667L134 667Z"  horiz-adv-x="540" vert-adv-y="1000"  />

      
      <glyph glyph-name="uni4c" unicode="&#x4c;" d="M90 667L134 667L134 40L320 40L320 0L90 0L90 667Z"  horiz-adv-x="334" vert-adv-y="1000"  />

      
      <glyph glyph-name="uni4d" unicode="&#x4d;" d="M127 0L83 0L159 690L448 73L737 690L813 0L769 0L710 536L448-24L186 536L127 0Z"  horiz-adv-x="896" vert-adv-y="1000"  />

      
      <glyph glyph-name="uni4e" unicode="&#x4e;" d="M134 0L90 0L90 674L650 88L650 667L694 667L694-17L134 569L134 0Z"  horiz-adv-x="784" vert-adv-y="1000"  />

      
      <glyph glyph-name="uni4f" unicode="&#x4f;" d="M154 576Q154 576 204 626Q254 676 400 676Q546 676 646 576Q746 476 746 332Q746 188 646 88.50Q546-11 400-11Q254-11 154 88.50Q54 188 54 332Q54 476 154 576M186 116.50Q186 116.50 229 72.75Q272 29 400 29Q528 29 614 116.50Q700 204 700 332Q700 461 614 548.50Q528 636 400 636Q272 636 186 548.50Q100 461 100 332Q100 204 186 116.50Z"  horiz-adv-x="800" vert-adv-y="1000"  />

      
      <glyph glyph-name="uni50" unicode="&#x50;" d="M220 317L134 317L134 0L90 0L90 667L219 667Q304 667 359 621.50Q414 576 414 493Q414 411 361 364Q308 317 220 317M134 627L134 357L222 357Q288 357 328 393.50Q368 430 368 492Q368 555 327.50 591Q287 627 215 627L134 627Z"  horiz-adv-x="446" vert-adv-y="1000"  />

      
      <glyph glyph-name="uni51" unicode="&#x51;" d="M736 0L678 0L619 64Q524-11 400-11Q254-11 154 88.50Q54 188 54 332Q54 476 154 576Q254 676 400 676Q545 676 645.50 576Q746 476 746 332Q746 193 650 92L736 0M400 29Q508 29 591 94L424 273L482 273L621 123Q700 209 700 332Q700 460 614 548Q528 636 400 636Q272 636 186 548.50Q100 461 100 332Q100 204 186 116.50Q272 29 400 29Z"  horiz-adv-x="800" vert-adv-y="1000"  />

      
      <glyph glyph-name="uni52" unicode="&#x52;" d="M420 0L370 0L154 315L134 315L134 0L90 0L90 667L186 667Q277 667 327 633Q396 585 396 490Q396 435 369 391.50Q342 348 284 328Q246 315 202 315L420 0M134 627L134 355L198 355Q269 355 309.50 391Q350 427 350 491Q350 575 291 607Q256 627 189 627L134 627Z"  horiz-adv-x="468" vert-adv-y="1000"  />

      
      <glyph glyph-name="uni53" unicode="&#x53;" d="M426 581L394 554Q352 636 263 636Q206 636 172.50 600Q139 564 139 512Q139 486 146.50 467Q154 448 173.50 432Q193 416 208 407.50Q223 399 256 383Q364 331 389 313Q460 264 460 184Q460 101 399 45Q338-11 252-11Q157-11 97 59Q68 93 54 132L92 150Q104 114 128 86Q173 29 253 29Q321 29 367.50 73Q414 117 414 183Q414 248 349 288Q330 299 225 351Q178 374 154 391Q130 408 114 434Q93 469 93 510Q93 575 137 625.50Q181 676 264 676Q315 676 358 651.50Q401 627 426 581Z"  horiz-adv-x="514" vert-adv-y="1000"  />

      
      <glyph glyph-name="uni54" unicode="&#x54;" d="M404 627L231 627L231 0L187 0L187 627L14 627L14 667L404 667L404 627Z"  horiz-adv-x="418" vert-adv-y="1000"  />

      
      <glyph glyph-name="uni55" unicode="&#x55;" d="M90 667L134 667L134 250Q134 197 139.50 165.50Q145 134 162 106Q188 64 231.50 46.50Q275 29 317 29Q359 29 402.50 46.50Q446 64 472 106Q489 134 494.50 165.50Q500 197 500 250L500 667L544 667L544 250Q544 188 537 151Q530 114 506 79Q444-11 317-11Q190-11 128 79Q104 114 97 151Q90 188 90 250L90 667Z"  horiz-adv-x="634" vert-adv-y="1000"  />

      
      <glyph glyph-name="uni56" unicode="&#x56;" d="M14 667L62 667L258 99L448 667L496 667L258-27L14 667Z"  horiz-adv-x="510" vert-adv-y="1000"  />

      
      <glyph glyph-name="uni57" unicode="&#x57;" d="M14 667L62 667L246 101L487 703L713 101L922 667L970 667L713-25L487 581L239-25L14 667Z"  horiz-adv-x="984" vert-adv-y="1000"  />

      
      <glyph glyph-name="uni58" unicode="&#x58;" d="M23 0L206 340L31 667L79 667L230 382L382 667L430 667L256 340L439 0L391 0L230 300L71 0L23 0Z"  horiz-adv-x="470" vert-adv-y="1000"  />

      
      <glyph glyph-name="uni59" unicode="&#x59;" d="M233 0L233 285L14 667L64 667L256 330L452 667L502 667L277 285L277 0L233 0Z"  horiz-adv-x="516" vert-adv-y="1000"  />

      
      <glyph glyph-name="uni5a" unicode="&#x5a;" d="M517 667L111 40L506 40L506 0L37 0L443 627L76 627L76 667L517 667Z"  horiz-adv-x="554" vert-adv-y="1000"  />

      
      <glyph glyph-name="uni5b" unicode="&#x5b;" d="M238 689L132 689L132-120L238-120L238-160L88-160L88 729L238 729L238 689Z"  horiz-adv-x="278" vert-adv-y="1000"  />

      
      <glyph glyph-name="uni5c" unicode="&#x5c;" d="M556-158L524-174L20 727L52 743L556-158Z"  horiz-adv-x="576" vert-adv-y="1000"  />

      
      <glyph glyph-name="uni5d" unicode="&#x5d;" d="M40-120L146-120L146 689L40 689L40 729L190 729L190-160L40-160L40-120Z"  horiz-adv-x="278" vert-adv-y="1000"  />

      
      <glyph glyph-name="uni5e" unicode="&#x5e;" d="M250 636L83 382L37 382L223 667L277 667L463 382L417 382L250 636Z"  horiz-adv-x="500" vert-adv-y="1000"  />

      
      <glyph glyph-name="uni5f" unicode="&#x5f;" d="M0-116L0-78L500-78L500-116L0-116Z"  horiz-adv-x="500" vert-adv-y="1000"  />

      
      <glyph glyph-name="uni60" unicode="&#x60;" d="M248 467L143 595L186 620L278 483L248 467Z"  horiz-adv-x="500" vert-adv-y="1000"  />

      
      <glyph glyph-name="uni61" unicode="&#x61;" d="M404 337L404 408L444 408L444 0L404 0L404 73Q349-11 245-11Q162-11 104 48Q46 107 46 204Q46 299 101 358Q156 417 245 417Q347 417 404 337M247 379Q182 379 135 332.50Q88 286 88 207Q88 134 131 80.50Q174 27 248 27Q321 27 363.50 79.50Q406 132 406 207Q406 290 357 334.50Q308 379 247 379Z"  horiz-adv-x="516" vert-adv-y="1000"  />

      
      <glyph glyph-name="uni62" unicode="&#x62;" d="M72 729L112 729L112 337Q171 417 272 417Q362 417 416 357.50Q470 298 470 207Q470 114 415.50 51.50Q361-11 270-11Q224-11 187 7.50Q150 26 136 41.50Q122 57 112 73L112 0L72 0L72 729M152 78.50Q152 78.50 173 52.75Q194 27 269 27Q344 27 386 78Q428 129 428 207Q428 288 382 333.50Q336 379 270 379Q205 379 157.50 334Q110 289 110 209Q110 130 152 78.50Z"  horiz-adv-x="516" vert-adv-y="1000"  />

      
      <glyph glyph-name="uni63" unicode="&#x63;" d="M399 365L399 312Q341 379 258 379Q184 379 136 328.50Q88 278 88 202Q88 120 139 73.50Q190 27 256 27Q337 27 404 100L404 46Q340-11 255-11Q163-11 104.50 49.50Q46 110 46 201Q46 294 104 355.50Q162 417 258 417Q337 417 399 365Z"  horiz-adv-x="442" vert-adv-y="1000"  />

      
      <glyph glyph-name="uni64" unicode="&#x64;" d="M404 337L404 729L444 729L444 0L404 0L404 73Q349-11 246-11Q163-11 104.50 46.50Q46 104 46 206Q46 310 105 363.50Q164 417 246 417Q348 417 404 337M246 379Q179 379 133.50 334Q88 289 88 207Q88 122 135 74.50Q182 27 248 27Q313 27 359.50 74.50Q406 122 406 207Q406 281 363 330Q320 379 246 379Z"  horiz-adv-x="516" vert-adv-y="1000"  />

      
      <glyph glyph-name="uni65" unicode="&#x65;" d="M437 199L88 199Q84 124 133 75.50Q182 27 250 27Q298 27 335 52.50Q372 78 392 120L426 100Q403 56 359 22.50Q315-11 247-11Q154-11 100 49.50Q46 110 46 202Q46 303 104.50 360Q163 417 244 417Q328 417 384 356Q440 295 437 199M91 237L395 237Q387 299 345.50 339Q304 379 244 379Q183 379 141 338.50Q99 298 91 237Z"  horiz-adv-x="483" vert-adv-y="1000"  />

      
      <glyph glyph-name="uni66" unicode="&#x66;" d="M214 370L112 370L112 0L72 0L72 370L26 370L26 408L72 408L72 602Q72 680 103 710.50Q134 741 179 741Q193 741 214 735L214 698Q202 703 183 703Q151 703 131.50 680.50Q112 658 112 594L112 408L214 408L214 370Z"  horiz-adv-x="214" vert-adv-y="1000"  />

      
      <glyph glyph-name="uni67" unicode="&#x67;" d="M408 408L448 408L448 8Q448-107 393.50-170.50Q339-234 243-234Q160-234 103.50-187.50Q47-141 43-59L85-59Q90-122 133.50-159Q177-196 243-196Q288-196 321.50-178Q355-160 371-137Q387-114 396-81Q405-48 406.50-30Q408-12 408 8L408 70Q350-11 247-11Q166-11 106 46Q46 103 46 204Q46 295 102 356Q158 417 252 417Q352 417 408 337L408 408M365.50 329Q365.50 329 343.25 354Q321 379 248 379Q175 379 131.50 327.50Q88 276 88 202Q88 127 131.50 77Q175 27 246 27Q320 27 365 78Q410 129 410 206Q410 279 365.50 329Z"  horiz-adv-x="520" vert-adv-y="1000"  />

      
      <glyph glyph-name="uni68" unicode="&#x68;" d="M72 0L72 729L112 729L112 344Q153 417 237 417Q313 417 350 360Q370 328 370 257L370 0L330 0L330 257Q330 314 314 339Q290 379 234 379Q166 379 134 322Q112 283 112 212L112 0L72 0Z"  horiz-adv-x="442" vert-adv-y="1000"  />

      
      <glyph glyph-name="uni69" unicode="&#x69;" d="M72 408L112 408L112 0L72 0L72 408M117.50 517.50Q117.50 517.50 112.25 512.25Q107 507 92 507Q77 507 66.50 517.50Q56 528 56 544Q56 560 66.50 570.50Q77 581 92 581Q107 581 117.50 570.50Q128 560 128 544Q128 528 117.50 517.50Z"  horiz-adv-x="184" vert-adv-y="1000"  />

      
      <glyph glyph-name="uni6a" unicode="&#x6a;" d="M72 408L112 408L112-239L72-239L72 408M117.50 517.50Q117.50 517.50 112.25 512.25Q107 507 92 507Q77 507 66.50 517.50Q56 528 56 544Q56 560 66.50 570.50Q77 581 92 581Q107 581 117.50 570.50Q128 560 128 544Q128 528 117.50 517.50Z"  horiz-adv-x="184" vert-adv-y="1000"  />

      
      <glyph glyph-name="uni6b" unicode="&#x6b;" d="M72 729L112 729L112 233L280 408L332 408L160 231L388 0L334 0L133 202L112 181L112 0L72 0L72 729Z"  horiz-adv-x="396" vert-adv-y="1000"  />

      
      <glyph glyph-name="uni6c" unicode="&#x6c;" d="M72 729L112 729L112 0L72 0L72 729Z"  horiz-adv-x="184" vert-adv-y="1000"  />

      
      <glyph glyph-name="uni6d" unicode="&#x6d;" d="M72 0L72 408L112 408L112 357Q147 417 218 417Q304 417 332 343Q367 417 453 417Q511 417 545 383Q580 348 580 272L580 0L540 0L540 272Q540 331 516 356Q494 379 455 379Q425 379 402.50 367Q380 355 369.50 340Q359 325 353.50 303Q348 281 347 270Q346 259 346 246L346 0L306 0L306 262Q306 379 216 379Q165 379 138.50 339.50Q112 300 112 236L112 0L72 0Z"  horiz-adv-x="652" vert-adv-y="1000"  />

      
      <glyph glyph-name="uni6e" unicode="&#x6e;" d="M72 0L72 408L112 408L112 344Q153 417 237 417Q313 417 350 360Q370 328 370 257L370 0L330 0L330 257Q330 314 314 339Q290 379 234 379Q166 379 134 322Q112 283 112 212L112 0L72 0Z"  horiz-adv-x="442" vert-adv-y="1000"  />

      
      <glyph glyph-name="uni6f" unicode="&#x6f;" d="M107.50 355.50Q107.50 355.50 138.25 386.25Q169 417 260 417Q351 417 412.50 355.50Q474 294 474 203Q474 112 412.50 50.50Q351-11 260-11Q169-11 107.50 50.50Q46 112 46 203Q46 294 107.50 355.50M137.50 78Q137.50 78 162.25 52.50Q187 27 260 27Q333 27 382.50 78Q432 129 432 203Q432 277 382.50 328Q333 379 260 379Q187 379 137.50 328Q88 277 88 203Q88 129 137.50 78Z"  horiz-adv-x="520" vert-adv-y="1000"  />

      
      <glyph glyph-name="uni70" unicode="&#x70;" d="M112 73L112-239L72-239L72 408L112 408L112 337Q171 417 272 417Q362 417 416 357.50Q470 298 470 207Q470 114 415.50 51.50Q361-11 270-11Q224-11 187 7.50Q150 26 136 41.50Q122 57 112 73M152 78.50Q152 78.50 173 52.75Q194 27 269 27Q344 27 386 78Q428 129 428 207Q428 288 382 333.50Q336 379 270 379Q205 379 157.50 334Q110 289 110 209Q110 130 152 78.50Z"  horiz-adv-x="516" vert-adv-y="1000"  />

      
      <glyph glyph-name="uni71" unicode="&#x71;" d="M444-239L404-239L404 73Q349-11 246-11Q163-11 104.50 46.50Q46 104 46 206Q46 310 105 363.50Q164 417 246 417Q348 417 404 337L404 408L444 408L444-239M246 379Q179 379 133.50 334Q88 289 88 207Q88 122 135 74.50Q182 27 248 27Q313 27 359.50 74.50Q406 122 406 207Q406 281 363 330Q320 379 246 379Z"  horiz-adv-x="516" vert-adv-y="1000"  />

      
      <glyph glyph-name="uni72" unicode="&#x72;" d="M72 0L72 408L112 408L112 355Q139 417 202 417Q226 417 245 407L225 371Q214 379 195 379Q166 379 147.50 362.50Q129 346 122.50 316.50Q116 287 114 267Q112 247 112 219L112 0L72 0Z"  horiz-adv-x="260" vert-adv-y="1000"  />

      
      <glyph glyph-name="uni73" unicode="&#x73;" d="M288 351L254 333Q234 379 183 379Q151 379 132.50 359Q114 339 114 314Q114 294 127 279.50Q140 265 151 260Q162 255 194 242Q197 241 210.50 236Q224 231 228.50 229Q233 227 244.50 221.50Q256 216 262 211.50Q268 207 276.50 200Q285 193 291 185Q312 159 312 119Q312 54 272.50 21.50Q233-11 179-11Q127-11 89 18Q51 47 38 97L77 109Q87 70 115.50 48.50Q144 27 179 27Q218 27 244 52.50Q270 78 270 117Q270 149 252 166Q234 183 192 200Q188 202 177 206.50Q166 211 162.50 212.50Q159 214 149.50 218Q140 222 136.50 224Q133 226 125.50 230Q118 234 114.50 236.50Q111 239 106 243Q101 247 97 251Q93 255 90 259Q72 283 72 312Q72 358 103 387.50Q134 417 181 417Q260 417 288 351Z"  horiz-adv-x="342" vert-adv-y="1000"  />

      
      <glyph glyph-name="uni74" unicode="&#x74;" d="M186 370L115 370L115 0L75 0L75 370L30 370L30 408L75 408L75 554L115 554L115 408L186 408L186 370Z"  horiz-adv-x="194" vert-adv-y="1000"  />

      
      <glyph glyph-name="uni75" unicode="&#x75;" d="M72 408L112 408L112 162Q112 91 138 60Q166 27 219 27Q272 27 300 60Q326 91 326 162L326 408L366 408L366 151Q366 79 335 39Q296-11 219-11Q142-11 103 39Q72 79 72 151L72 408Z"  horiz-adv-x="438" vert-adv-y="1000"  />

      
      <glyph glyph-name="uni76" unicode="&#x76;" d="M8 408L52 408L196 69L338 408L382 408L196-25L8 408Z"  horiz-adv-x="390" vert-adv-y="1000"  />

      
      <glyph glyph-name="uni77" unicode="&#x77;" d="M8 408L52 408L193 71L334 433L475 71L620 408L664 408L475-25L334 337L193-25L8 408Z"  horiz-adv-x="672" vert-adv-y="1000"  />

      
      <glyph glyph-name="uni78" unicode="&#x78;" d="M8 0L173 214L22 408L71 408L200 240L327 408L376 408L228 214L392 0L343 0L200 188L57 0L8 0Z"  horiz-adv-x="400" vert-adv-y="1000"  />

      
      <glyph glyph-name="uni79" unicode="&#x79;" d="M102-239L202-7L8 408L54 408L225 45L374 408L420 408L148-239L102-239Z"  horiz-adv-x="428" vert-adv-y="1000"  />

      
      <glyph glyph-name="uni7a" unicode="&#x7a;" d="M434 408L104 38L432 38L432 0L18 0L352 370L70 370L70 408L434 408Z"  horiz-adv-x="452" vert-adv-y="1000"  />

      
      <glyph glyph-name="uni7b" unicode="&#x7b;" d="M40 270L40 299Q66 306 79.50 323Q93 340 96 356.50Q99 373 99 399L99 593Q99 666 130 697Q162 729 228 729L240 729L240 689Q218 691 196 684.50Q174 678 162 665Q143 644 143 590L143 396Q143 348 129.50 322.50Q116 297 79 284Q143 261 143 168L143-14Q143-76 162-97Q189-127 240-120L240-160L231-160Q160-160 129-126Q99-93 99-6L99 170Q99 187 97.50 199Q96 211 91 227.50Q86 244 73 254.50Q60 265 40 270Z"  horiz-adv-x="278" vert-adv-y="1000"  />

      
      <glyph glyph-name="uni7c" unicode="&#x7c;" d="M230-250L230 750L270 750L270-250L230-250Z"  horiz-adv-x="500" vert-adv-y="1000"  />

      
      <glyph glyph-name="uni7d" unicode="&#x7d;" d="M238 299L238 270Q218 265 205 254.50Q192 244 187 227.50Q182 211 180.50 199Q179 187 179 170L179-6Q179-93 149-126Q118-160 47-160L38-160L38-120Q89-127 116-97Q135-76 135-14L135 168Q135 261 199 284Q162 297 148.50 322.50Q135 348 135 396L135 590Q135 644 116 665Q104 678 82 684.50Q60 691 38 689L38 729L50 729Q116 729 148 697Q179 666 179 593L179 399Q179 373 182 356.50Q185 340 198.50 323Q212 306 238 299Z"  horiz-adv-x="278" vert-adv-y="1000"  />

      
      <glyph glyph-name="uni7e" unicode="&#x7e;" d="M89 596L62 612Q80 650 109 679Q146 714 194 714Q231 714 307 674Q379 637 410 637Q448 637 475 664Q494 683 511 715L538 699Q520 663 499 641Q459 599 404 599Q360 599 269 649Q221 676 191 676Q154 676 127 650Q105 629 89 596Z"  horiz-adv-x="600" vert-adv-y="1000"  />

      
      <glyph glyph-name="unia4" unicode="&#xa4;" d="M99 90L75 115L165 204Q109 266 109 350Q109 433 162 493L72 583L96 607L186 518Q247 574 333 574Q419 574 480 518L570 607L594 583L504 493Q558 434 558 349Q558 271 503 206L594 115L570 91L479 182Q418 127 335 127Q251 127 189 180L99 90M465 218Q465 218 492.50 245.50Q520 273 520 350Q520 427 465 482.50Q410 538 333 538Q256 538 201.50 482.50Q147 427 147 350Q147 273 201.50 218Q256 163 333 163Q410 163 465 218Z"  horiz-adv-x="666" vert-adv-y="1000"  />

      
      <glyph glyph-name="unia6" unicode="&#xa6;" d="M230 390L230 750L270 750L270 390L230 390M230-250L230 110L270 110L270-250L230-250Z"  horiz-adv-x="500" vert-adv-y="1000"  />

      
      <glyph glyph-name="unia7" unicode="&#xa7;" d="M209 441Q198 446 186 453.50Q174 461 156.50 477.50Q139 494 128 521Q117 548 117 582Q117 652 161.50 693.50Q206 735 282 735Q341 735 380 708Q419 681 432 639Q440 615 442 563L398 563Q401 595 390 627Q366 695 282 695Q226 695 194.50 664.50Q163 634 163 580Q163 556 172.50 536Q182 516 194 504Q206 492 227.50 481Q249 470 261.50 466Q274 462 297 455Q367 434 398 406Q448 362 448 282Q448 242 434.50 210.50Q421 179 399.50 161Q378 143 364.50 135Q351 127 338 123Q437 83 437-22Q437-72 417-105.50Q397-139 365.50-152Q334-165 313.50-169Q293-173 274-173Q164-173 131-97Q114-60 116 0L160 0Q158-39 169-70Q192-133 274-133Q327-133 359-102.50Q391-72 391-21Q391 71 282 101Q276 103 255.50 108Q235 113 226 116Q217 119 201 125.50Q185 132 172.50 140.50Q160 149 148 160Q100 206 100 281Q100 398 209 441M366.50 374.50Q366.50 374.50 348.75 392.75Q331 411 274 411Q217 411 181.50 374.50Q146 338 146 282Q146 226 181.50 189.50Q217 153 274 153Q331 153 366.50 189.50Q402 226 402 282Q402 338 366.50 374.50Z"  horiz-adv-x="548" vert-adv-y="1000"  />

      
      <glyph glyph-name="unia9" unicode="&#xa9;" d="M27 333Q27 476 127.50 576.50Q228 677 370 677Q512 677 612.50 576.50Q713 476 713 333Q713 191 612.50 90.50Q512-10 370-10Q228-10 127.50 90.50Q27 191 27 333M588 112Q588 112 633.50 158Q679 204 679 333Q679 462 588 554.50Q497 647 370 647Q243 647 152 554.50Q61 462 61 333Q61 204 152 112Q243 20 370 20Q497 20 588 112M513 474L513 421Q463 489 383 489Q314 489 269.50 443.50Q225 398 225 328Q225 260 270.50 215Q316 170 384 170Q461 170 513 235L513 183Q453 134 384 134Q300 134 243.50 189.50Q187 245 187 329Q187 414 243.50 469.50Q300 525 384 525Q458 525 513 474Z"  horiz-adv-x="740" vert-adv-y="1000"  />

      
      <glyph glyph-name="uniab" unicode="&#xab;" d="M80 207L188 81L162 57L32 207L162 357L188 333L80 207M186 207L294 81L268 57L138 207L268 357L294 333L186 207Z"  horiz-adv-x="348" vert-adv-y="1000"  />

      
      <glyph glyph-name="uniac" unicode="&#xac;" d="M467 0L427 0L427 229L33 229L33 267L467 267L467 0Z"  horiz-adv-x="500" vert-adv-y="1000"  />

      
      <glyph glyph-name="uniae" unicode="&#xae;" d="M27 333Q27 476 127.50 576.50Q228 677 370 677Q512 677 612.50 576.50Q713 476 713 333Q713 191 612.50 90.50Q512-10 370-10Q228-10 127.50 90.50Q27 191 27 333M588 112Q588 112 633.50 158Q679 204 679 333Q679 462 588 554.50Q497 647 370 647Q243 647 152 554.50Q61 462 61 333Q61 204 152 112Q243 20 370 20Q497 20 588 112M495 135L455 135L338 306L331 306L331 135L297 135L297 505L359 505Q420 505 448.50 481.50Q477 458 477 404Q477 338 413 313Q401 309 393.50 308.50Q386 308 377 305L495 135M331 474L331 337L365 337Q442 337 442 405Q442 425 435.50 439Q429 453 422 460Q415 467 401 470Q387 473 380.50 473.50Q374 474 360 474L331 474Z"  horiz-adv-x="740" vert-adv-y="1000"  />

      
      <glyph glyph-name="unib0" unicode="&#xb0;" d="M152.50 638Q152.50 638 171.25 656.50Q190 675 250 675Q310 675 347.50 638Q385 601 385 544Q385 487 347.50 450Q310 413 250 413Q190 413 152.50 450Q115 487 115 544Q115 601 152.50 638M324.50 617.50Q324.50 617.50 310.25 632.25Q296 647 250 647Q204 647 175.50 617.50Q147 588 147 544Q147 500 175.50 470.50Q204 441 250 441Q296 441 324.50 470.50Q353 500 353 544Q353 588 324.50 617.50Z"  horiz-adv-x="500" vert-adv-y="1000"  />

      
      <glyph glyph-name="unib1" unicode="&#xb1;" d="M33 339L33 377L230 377L230 558L270 558L270 377L467 377L467 339L270 339L270 158L230 158L230 339L33 339M33 76L33 114L467 114L467 76L33 76Z"  horiz-adv-x="500" vert-adv-y="1000"  />

      
      <glyph glyph-name="unib5" unicode="&#xb5;" d="M112-164L72-164L72 408L112 408L112 201Q112 107 151 67Q190 27 244 27Q303 27 345.50 77Q388 127 388 213L388 408L428 408L428 0L388 0L388 90Q374 53 345 26Q304-11 242-11Q155-11 112 70L112-164Z"  horiz-adv-x="500" vert-adv-y="1000"  />

      
      <glyph glyph-name="uni03BC" unicode="&#x03BC;" d="M112-164L72-164L72 408L112 408L112 201Q112 107 151 67Q190 27 244 27Q303 27 345.50 77Q388 127 388 213L388 408L428 408L428 0L388 0L388 90Q374 53 345 26Q304-11 242-11Q155-11 112 70L112-164Z"  horiz-adv-x="500" vert-adv-y="1000"  />

      
      <glyph glyph-name="unib6" unicode="&#xb6;" d="M257-102L221-102L221 311L204 311Q123 311 70.50 360Q18 409 18 487Q18 520 27.50 549Q37 578 59 606Q81 634 125.50 650.50Q170 667 232 667L463 667L463 634L410 634L410-102L374-102L374 634L257 634L257-102Z"  horiz-adv-x="531" vert-adv-y="1000"  />

      
      <glyph glyph-name="unib7" unicode="&#xb7;" d="M66 306Q66 306 59 313Q52 320 52 340Q52 360 66 374Q80 388 100 388Q120 388 134 374Q148 360 148 340Q148 320 134 306Q120 292 100 292Q80 292 66 306Z"  horiz-adv-x="200" vert-adv-y="1000"  />

      
      <glyph glyph-name="uni2219" unicode="&#x2219;" d="M66 306Q66 306 59 313Q52 320 52 340Q52 360 66 374Q80 388 100 388Q120 388 134 374Q148 360 148 340Q148 320 134 306Q120 292 100 292Q80 292 66 306Z"  horiz-adv-x="200" vert-adv-y="1000"  />

      
      <glyph glyph-name="unibb" unicode="&#xbb;" d="M162 207L54 333L80 357L210 207L80 57L54 81L162 207M268 207L160 333L186 357L316 207L186 57L160 81L268 207Z"  horiz-adv-x="348" vert-adv-y="1000"  />

      
      <glyph glyph-name="uni0401" unicode="&#x0401;" d="M410 667L410 627L134 627L134 385L404 385L404 345L134 345L134 40L410 40L410 0L90 0L90 667L410 667M132 753Q132 753 126.50 758.50Q121 764 121 780Q121 796 132 807Q143 818 159 818Q175 818 186 807Q197 796 197 780Q197 764 186 753Q175 742 159 742Q143 742 132 753M318 753Q318 753 312.50 758.50Q307 764 307 780Q307 796 318 807Q329 818 345 818Q361 818 372 807Q383 796 383 780Q383 764 372 753Q361 742 345 742Q329 742 318 753Z"  horiz-adv-x="464" vert-adv-y="1000"  />

      
      <glyph glyph-name="uni0402" unicode="&#x0402;" d="M424 627L224 627L224 377Q292 388 376 388Q471 388 526 360Q624 311 624 189Q624 108 578 48.50Q532-11 446-11Q381-11 326 19L342 58Q393 29 447 29Q506 29 542 72Q578 115 578 187Q578 290 498 326Q450 348 376 348Q304 348 224 337L224 0L180 0L180 627L14 627L14 667L424 667L424 627Z"  horiz-adv-x="670" vert-adv-y="1000"  />

      
      <glyph glyph-name="uni0403" unicode="&#x0403;" d="M90 0L90 667L386 667L386 627L134 627L134 0L90 0M316 854L366 829L232 703L200 721L316 854Z"  horiz-adv-x="400" vert-adv-y="1000"  />

      
      <glyph glyph-name="uni0404" unicode="&#x0404;" d="M624 589L624 531Q581 581 522.50 608.50Q464 636 399 636Q284 636 198.50 559Q113 482 102 364L544 364L544 324L100 324Q103 191 194.50 110Q286 29 400 29Q456 29 516 53.50Q576 78 624 130L624 72Q530-11 402-11Q254-11 154 90Q54 191 54 332Q54 476 155 576Q256 676 400 676Q532 676 624 589Z"  horiz-adv-x="678" vert-adv-y="1000"  />

      
      <glyph glyph-name="uni0405" unicode="&#x0405;" d="M426 581L394 554Q352 636 263 636Q206 636 172.50 600Q139 564 139 512Q139 486 146.50 467Q154 448 173.50 432Q193 416 208 407.50Q223 399 256 383Q364 331 389 313Q460 264 460 184Q460 101 399 45Q338-11 252-11Q157-11 97 59Q68 93 54 132L92 150Q104 114 128 86Q173 29 253 29Q321 29 367.50 73Q414 117 414 183Q414 248 349 288Q330 299 225 351Q178 374 154 391Q130 408 114 434Q93 469 93 510Q93 575 137 625.50Q181 676 264 676Q315 676 358 651.50Q401 627 426 581Z"  horiz-adv-x="514" vert-adv-y="1000"  />

      
      <glyph glyph-name="uni0406" unicode="&#x0406;" d="M90 667L134 667L134 0L90 0L90 667Z"  horiz-adv-x="224" vert-adv-y="1000"  />

      
      <glyph glyph-name="uni0407" unicode="&#x0407;" d="M90 667L134 667L134 0L90 0L90 667M21 753Q21 753 15.50 758.50Q10 764 10 780Q10 796 21 807Q32 818 48 818Q64 818 75 807Q86 796 86 780Q86 764 75 753Q64 742 48 742Q32 742 21 753M149 753Q149 753 143.50 758.50Q138 764 138 780Q138 796 149 807Q160 818 176 818Q192 818 203 807Q214 796 214 780Q214 764 203 753Q192 742 176 742Q160 742 149 753Z"  horiz-adv-x="224" vert-adv-y="1000"  />

      
      <glyph glyph-name="uni0408" unicode="&#x0408;" d="M130 667L174 667L174 2Q174-139 58-139Q-18-139-54-67L-23-43Q6-99 60-99Q130-99 130 2L130 667Z"  horiz-adv-x="264" vert-adv-y="1000"  />

      
      <glyph glyph-name="uni0409" unicode="&#x0409;" d="M154 667L530 667L530 380L646 380Q876 380 876 197Q876 114 822.50 57Q769 0 660 0L486 0L486 627L198 627L198 239Q198 189 196.50 161.50Q195 134 184 96Q173 58 151 34Q115-6 54-6Q38-6 14 0L14 40Q34 34 51 34Q90 34 116 60Q134 78 143 111.50Q152 145 153 168Q154 191 154 239L154 667M530 340L530 40L642 40Q743 40 788 84Q830 124 830 197Q830 284 761 320Q722 340 634 340L530 340Z"  horiz-adv-x="922" vert-adv-y="1000"  />

      
      <glyph glyph-name="uni040A" unicode="&#x040A;" d="M134 667L134 380L538 380L538 667L582 667L582 380L698 380Q928 380 928 197Q928 114 874.50 57Q821 0 712 0L538 0L538 340L134 340L134 0L90 0L90 667L134 667M582 340L582 40L694 40Q795 40 840 84Q882 124 882 197Q882 284 813 320Q774 340 686 340L582 340Z"  horiz-adv-x="974" vert-adv-y="1000"  />

      
      <glyph glyph-name="uni040B" unicode="&#x040B;" d="M424 627L224 627L224 384L394 384Q485 384 530 362Q574 341 587 306.50Q600 272 600 213L600 0L556 0L556 213Q556 234 555 244Q554 254 550 273.50Q546 293 534 306.50Q522 320 502 329Q471 344 380 344L224 344L224 0L180 0L180 627L14 627L14 667L424 667L424 627Z"  horiz-adv-x="670" vert-adv-y="1000"  />

      
      <glyph glyph-name="uni040C" unicode="&#x040C;" d="M134 667L134 353L449 667L507 667L184 348L526 0L466 0L152 318L134 301L134 0L90 0L90 667L134 667M336 854L386 829L252 703L220 721L336 854Z"  horiz-adv-x="540" vert-adv-y="1000"  />

      
      <glyph glyph-name="uni040E" unicode="&#x040E;" d="M14 667L64 667L295 235L490 667L536 667L231 0L185 0L270 186L14 667M145 803L180 822Q209 758 285 758Q361 758 390 822L425 803Q404 757 364.50 737.50Q325 718 285 718Q245 718 205.50 737.50Q166 757 145 803Z"  horiz-adv-x="550" vert-adv-y="1000"  />

      
      <glyph glyph-name="uni040F" unicode="&#x040F;" d="M90 0L90 667L134 667L134 40L532 40L532 667L576 667L576 0L355 0L355-180L311-180L311 0L90 0Z"  horiz-adv-x="666" vert-adv-y="1000"  />

      
      <glyph glyph-name="uni0410" unicode="&#x0410;" d="M524 0L435 219L151 219L62 0L14 0L295 687L572 0L524 0M167 259L419 259L294 575L167 259Z"  horiz-adv-x="586" vert-adv-y="1000"  />

      
      <glyph glyph-name="uni0411" unicode="&#x0411;" d="M90 0L90 667L411 667L411 627L134 627L134 380L250 380Q480 380 480 197Q480 114 426.50 57Q373 0 264 0L90 0M134 340L134 40L246 40Q347 40 392 84Q434 124 434 197Q434 284 365 320Q325 340 238 340L134 340Z"  horiz-adv-x="534" vert-adv-y="1000"  />

      
      <glyph glyph-name="uni0412" unicode="&#x0412;" d="M90 0L90 667L236 667Q322 667 371 621.50Q420 576 420 500Q420 402 342 354Q406 344 443 298Q480 252 480 187Q480 101 422.50 50.50Q365 0 273 0L90 0M134 627L134 365L240 365Q297 365 331 393Q375 429 375 495Q375 562 330 599Q294 627 219 627L134 627M134 325L134 40L246 40Q277 40 295 41.50Q313 43 341.50 52Q370 61 391 80Q434 118 434 182Q434 273 363 306Q320 325 238 325L134 325Z"  horiz-adv-x="534" vert-adv-y="1000"  />

      
      <glyph glyph-name="uni0413" unicode="&#x0413;" d="M90 0L90 667L386 667L386 627L134 627L134 0L90 0Z"  horiz-adv-x="400" vert-adv-y="1000"  />

      
      <glyph glyph-name="uni0414" unicode="&#x0414;" d="M144 667L520 667L520 40L596 40L596-134L554-134L554 0L56 0L56-134L14-134L14 40Q48 39 76 64.50Q104 90 120 130Q144 191 144 305L144 667M188 627L188 305Q188 182 164 119Q147 74 113 40L476 40L476 627L188 627Z"  horiz-adv-x="610" vert-adv-y="1000"  />

      
      <glyph glyph-name="uni0415" unicode="&#x0415;" d="M410 667L410 627L134 627L134 385L404 385L404 345L134 345L134 40L410 40L410 0L90 0L90 667L410 667Z"  horiz-adv-x="464" vert-adv-y="1000"  />

      
      <glyph glyph-name="uni0416" unicode="&#x0416;" d="M376 667L420 667L420 353L702 667L760 667L464 344L782 0L724 0L433 314L420 301L420 0L376 0L376 301L363 314L72 0L14 0L332 344L36 667L94 667L376 353L376 667Z"  horiz-adv-x="796" vert-adv-y="1000"  />

      
      <glyph glyph-name="uni0417" unicode="&#x0417;" d="M136 554L104 581Q162 676 285 676Q361 676 406 633Q454 589 454 513Q454 414 366 367Q430 351 465 303Q500 255 500 191Q500 86 424 31Q366-11 279-11Q196-11 139 29.50Q82 70 54 130L96 150Q121 90 174.50 59.50Q228 29 282 29Q350 29 397 64Q454 106 454 191Q454 261 406.50 300Q359 339 276 339L216 339L216 379L276 379Q329 379 368.50 415.50Q408 452 408 513Q408 565 377 599Q343 636 280 636Q189 636 136 554Z"  horiz-adv-x="554" vert-adv-y="1000"  />

      
      <glyph glyph-name="uni0418" unicode="&#x0418;" d="M566 0L566 556L90-17L90 667L134 667L134 101L610 674L610 0L566 0Z"  horiz-adv-x="700" vert-adv-y="1000"  />

      
      <glyph glyph-name="uni0419" unicode="&#x0419;" d="M566 0L566 556L90-17L90 667L134 667L134 101L610 674L610 0L566 0M429.50 737.50Q429.50 737.50 409.75 727.75Q390 718 350 718Q310 718 270.50 737.50Q231 757 210 803L245 822Q274 758 350 758Q426 758 455 822L490 803Q469 757 429.50 737.50Z"  horiz-adv-x="700" vert-adv-y="1000"  />

      
      <glyph glyph-name="uni041A" unicode="&#x041A;" d="M134 667L134 353L449 667L507 667L184 348L526 0L466 0L152 318L134 301L134 0L90 0L90 667L134 667Z"  horiz-adv-x="540" vert-adv-y="1000"  />

      
      <glyph glyph-name="uni041B" unicode="&#x041B;" d="M154 667L530 667L530 0L486 0L486 627L198 627L198 239Q198 189 196.50 161.50Q195 134 184 96Q173 58 151 34Q115-6 54-6Q38-6 14 0L14 40Q34 34 51 34Q90 34 116 60Q134 78 143 111.50Q152 145 153 168Q154 191 154 239L154 667Z"  horiz-adv-x="620" vert-adv-y="1000"  />

      
      <glyph glyph-name="uni041C" unicode="&#x041C;" d="M127 0L83 0L159 690L448 73L737 690L813 0L769 0L710 536L448-24L186 536L127 0Z"  horiz-adv-x="896" vert-adv-y="1000"  />

      
      <glyph glyph-name="uni041D" unicode="&#x041D;" d="M134 667L134 384L538 384L538 667L582 667L582 0L538 0L538 344L134 344L134 0L90 0L90 667L134 667Z"  horiz-adv-x="672" vert-adv-y="1000"  />

      
      <glyph glyph-name="uni041E" unicode="&#x041E;" d="M154 576Q154 576 204 626Q254 676 400 676Q546 676 646 576Q746 476 746 332Q746 188 646 88.50Q546-11 400-11Q254-11 154 88.50Q54 188 54 332Q54 476 154 576M186 116.50Q186 116.50 229 72.75Q272 29 400 29Q528 29 614 116.50Q700 204 700 332Q700 461 614 548.50Q528 636 400 636Q272 636 186 548.50Q100 461 100 332Q100 204 186 116.50Z"  horiz-adv-x="800" vert-adv-y="1000"  />

      
      <glyph glyph-name="uni041F" unicode="&#x041F;" d="M90 667L582 667L582 0L538 0L538 627L134 627L134 0L90 0L90 667Z"  horiz-adv-x="672" vert-adv-y="1000"  />

      
      <glyph glyph-name="uni0420" unicode="&#x0420;" d="M220 317L134 317L134 0L90 0L90 667L219 667Q304 667 359 621.50Q414 576 414 493Q414 411 361 364Q308 317 220 317M134 627L134 357L222 357Q288 357 328 393.50Q368 430 368 492Q368 555 327.50 591Q287 627 215 627L134 627Z"  horiz-adv-x="446" vert-adv-y="1000"  />

      
      <glyph glyph-name="uni0421" unicode="&#x0421;" d="M624 589L624 531Q581 581 522.50 608.50Q464 636 399 636Q272 636 186 547Q100 458 100 330Q100 259 127.50 200Q155 141 199.50 104.50Q244 68 296 48.50Q348 29 400 29Q456 29 516 53.50Q576 78 624 130L624 72Q530-11 402-11Q254-11 154 90Q54 191 54 332Q54 476 155 576Q256 676 400 676Q532 676 624 589Z"  horiz-adv-x="678" vert-adv-y="1000"  />

      
      <glyph glyph-name="uni0422" unicode="&#x0422;" d="M404 627L231 627L231 0L187 0L187 627L14 627L14 667L404 667L404 627Z"  horiz-adv-x="418" vert-adv-y="1000"  />

      
      <glyph glyph-name="uni0423" unicode="&#x0423;" d="M14 667L64 667L295 235L490 667L536 667L231 0L185 0L270 186L14 667Z"  horiz-adv-x="550" vert-adv-y="1000"  />

      
      <glyph glyph-name="uni0424" unicode="&#x0424;" d="M388 0L388 94L360 94Q289 94 233.50 111Q178 128 145 154Q112 180 90.50 216Q69 252 61.50 285.50Q54 319 54 354Q54 389 61.50 422.50Q69 456 90.50 492Q112 528 145 554Q178 580 233.50 597Q289 614 360 614L388 614L388 694L432 694L432 614L460 614Q531 614 586.50 597Q642 580 675 554Q708 528 729.50 492Q751 456 758.50 422.50Q766 389 766 354Q766 319 758.50 285.50Q751 252 729.50 216Q708 180 675 154Q642 128 586.50 111Q531 94 460 94L432 94L432 0L388 0M388 134L388 574L358 574Q285 574 231.50 553.50Q178 533 151 499Q124 465 112 429.50Q100 394 100 354Q100 314 112 278.50Q124 243 151 209Q178 175 231.50 154.50Q285 134 358 134L388 134M432 574L432 134L462 134Q535 134 588.50 154.50Q642 175 669 209Q696 243 708 278.50Q720 314 720 354Q720 394 708 429.50Q696 465 669 499Q642 533 588.50 553.50Q535 574 462 574L432 574Z"  horiz-adv-x="820" vert-adv-y="1000"  />

      
      <glyph glyph-name="uni0425" unicode="&#x0425;" d="M23 0L206 340L31 667L79 667L230 382L382 667L430 667L256 340L439 0L391 0L230 300L71 0L23 0Z"  horiz-adv-x="470" vert-adv-y="1000"  />

      
      <glyph glyph-name="uni0426" unicode="&#x0426;" d="M90 0L90 667L134 667L134 40L532 40L532 667L576 667L576 40L652 40L652-134L610-134L610 0L90 0Z"  horiz-adv-x="666" vert-adv-y="1000"  />

      
      <glyph glyph-name="uni0427" unicode="&#x0427;" d="M446 0L446 300Q334 293 276 293Q185 293 140 315Q96 336 83 370.50Q70 405 70 464L70 667L114 667L114 464Q114 443 115 433Q116 423 120 403.50Q124 384 136 370.50Q148 357 168 348Q199 333 290 333Q359 333 446 340L446 667L490 667L490 0L446 0Z"  horiz-adv-x="580" vert-adv-y="1000"  />

      
      <glyph glyph-name="uni0428" unicode="&#x0428;" d="M90 0L90 667L134 667L134 40L438 40L438 667L482 667L482 40L786 40L786 667L830 667L830 0L90 0Z"  horiz-adv-x="920" vert-adv-y="1000"  />

      
      <glyph glyph-name="uni0429" unicode="&#x0429;" d="M90 0L90 667L134 667L134 40L438 40L438 667L482 667L482 40L786 40L786 667L830 667L830 40L906 40L906-134L864-134L864 0L90 0Z"  horiz-adv-x="920" vert-adv-y="1000"  />

      
      <glyph glyph-name="uni042A" unicode="&#x042A;" d="M174 0L174 627L14 627L14 667L218 667L218 380L334 380Q564 380 564 197Q564 114 510.50 57Q457 0 348 0L174 0M218 340L218 40L330 40Q431 40 476 84Q518 124 518 197Q518 284 449 320Q410 340 322 340L218 340Z"  horiz-adv-x="610" vert-adv-y="1000"  />

      
      <glyph glyph-name="uni042B" unicode="&#x042B;" d="M90 0L90 667L134 667L134 380L250 380Q480 380 480 197Q480 114 426.50 57Q373 0 264 0L90 0M134 340L134 40L246 40Q347 40 392 84Q434 124 434 197Q434 284 365 320Q326 340 238 340L134 340M556 667L600 667L600 0L556 0L556 667Z"  horiz-adv-x="690" vert-adv-y="1000"  />

      
      <glyph glyph-name="uni042C" unicode="&#x042C;" d="M90 0L90 667L134 667L134 380L250 380Q480 380 480 197Q480 114 426.50 57Q373 0 264 0L90 0M134 340L134 40L246 40Q347 40 392 84Q434 124 434 197Q434 284 365 320Q326 340 238 340L134 340Z"  horiz-adv-x="526" vert-adv-y="1000"  />

      
      <glyph glyph-name="uni042D" unicode="&#x042D;" d="M54 72L54 130Q102 78 162 53.50Q222 29 278 29Q392 29 483 110Q574 191 578 324L134 324L134 364L576 364Q565 482 479.50 559Q394 636 279 636Q214 636 155.50 608.50Q97 581 54 531L54 589Q146 676 278 676Q422 676 523 576Q624 476 624 332Q624 191 524 90Q424-11 276-11Q148-11 54 72Z"  horiz-adv-x="678" vert-adv-y="1000"  />

      
      <glyph glyph-name="uni042E" unicode="&#x042E;" d="M134 372L236 372Q251 504 346 590Q441 676 570 676Q712 676 809 576Q906 476 906 332Q906 188 809 88.50Q712-11 570-11Q428-11 332 89Q236 189 234 332L134 332L134 0L90 0L90 667L134 667L134 372M362.50 116.50Q362.50 116.50 403.75 72.75Q445 29 570 29Q695 29 777.50 116.50Q860 204 860 332Q860 460 777 548Q694 636 570 636Q446 636 363 548Q280 460 280 332Q280 204 362.50 116.50Z"  horiz-adv-x="960" vert-adv-y="1000"  />

      
      <glyph glyph-name="uni042F" unicode="&#x042F;" d="M34 0L236 299Q198 300 161 314Q148 319 134.50 327.50Q121 336 100.50 354.50Q80 373 67 406.50Q54 440 54 483Q54 542 80 581.50Q106 621 141 641Q185 667 266 667L380 667L380 0L336 0L336 299L286 299L86 0L34 0M336 627L266 627Q208 627 175 611Q140 595 120 561Q100 527 100 483Q100 413 144 374Q183 339 260 339L336 339L336 627Z"  horiz-adv-x="470" vert-adv-y="1000"  />

      
      <glyph glyph-name="uni0430" unicode="&#x0430;" d="M404 337L404 408L444 408L444 0L404 0L404 73Q349-11 245-11Q162-11 104 48Q46 107 46 204Q46 299 101 358Q156 417 245 417Q347 417 404 337M247 379Q182 379 135 332.50Q88 286 88 207Q88 134 131 80.50Q174 27 248 27Q321 27 363.50 79.50Q406 132 406 207Q406 290 357 334.50Q308 379 247 379Z"  horiz-adv-x="516" vert-adv-y="1000"  />

      
      <glyph glyph-name="uni0431" unicode="&#x0431;" d="M87 311L89 311Q112 364 161.50 390.50Q211 417 268 417Q361 417 417.50 358Q474 299 474 204Q474 106 413 47.50Q352-11 259-11Q171-11 116 40Q46 106 46 258Q46 504 174 587Q186 595 200 601.50Q214 608 224.50 612Q235 616 253 620.50Q271 625 279 626.50Q287 628 307.50 632Q328 636 332 637Q406 653 422 690L472 690Q461 665 444.50 647.50Q428 630 404.50 619.50Q381 609 365.50 604.50Q350 600 324 594Q225 574 181 539Q135 502 112.50 439Q90 376 87 311M259 27Q345 27 388.50 80.50Q432 134 432 204Q432 274 388 326.50Q344 379 268 379Q186 379 139 326Q92 273 92 204Q92 137 131 86Q176 27 259 27Z"  horiz-adv-x="520" vert-adv-y="1000"  />

      
      <glyph glyph-name="uni0432" unicode="&#x0432;" d="M72 408L205 408Q262 408 292 384Q328 355 328 306Q328 250 283 221Q311 217 333 198Q368 167 368 116Q368 59 327 28Q291 0 227 0L72 0L72 408M112 230L205 230Q242 230 263 247Q288 267 288 301Q288 334 263 354Q243 370 205 370L112 370L112 230M112 38L227 38Q273 38 297 56Q326 78 326 117Q326 153 299 174Q275 192 227 192L112 192L112 38Z"  horiz-adv-x="414" vert-adv-y="1000"  />

      
      <glyph glyph-name="uni0433" unicode="&#x0433;" d="M72 0L72 408L292 408L292 370L112 370L112 0L72 0Z"  horiz-adv-x="300" vert-adv-y="1000"  />

      
      <glyph glyph-name="uni0434" unicode="&#x0434;" d="M100 408L368 408L368 38L428 38L428-110L390-110L390 0L46 0L46-110L8-110L8 38Q58 41 83 92Q100 127 100 202L100 408M328 38L328 370L140 370L140 190Q140 82 88 38L328 38Z"  horiz-adv-x="440" vert-adv-y="1000"  />

      
      <glyph glyph-name="uni0435" unicode="&#x0435;" d="M437 199L88 199Q84 124 133 75.50Q182 27 250 27Q298 27 335 52.50Q372 78 392 120L426 100Q403 56 359 22.50Q315-11 247-11Q154-11 100 49.50Q46 110 46 202Q46 303 104.50 360Q163 417 244 417Q328 417 384 356Q440 295 437 199M91 237L395 237Q387 299 345.50 339Q304 379 244 379Q183 379 141 338.50Q99 298 91 237Z"  horiz-adv-x="483" vert-adv-y="1000"  />

      
      <glyph glyph-name="uni0436" unicode="&#x0436;" d="M260 408L300 408L300 214L484 408L536 408L346 212L552 0L498 0L320 186L300 166L300 0L260 0L260 166L240 186L62 0L8 0L214 212L24 408L76 408L260 214L260 408Z"  horiz-adv-x="560" vert-adv-y="1000"  />

      
      <glyph glyph-name="uni0437" unicode="&#x0437;" d="M105 322L72 345Q114 417 201 417Q260 417 291 388Q324 359 324 309Q324 249 277 224Q304 218 325 197Q354 168 354 119Q354 56 306 19Q266-11 202-11Q140-11 97 19Q62 46 46 79L82 102Q97 69 125 50Q156 27 202 27Q253 27 280 50Q312 76 312 120Q312 159 284 180Q260 198 209 198L167 198L167 236L198 236Q237 236 259 253Q284 273 284 305Q284 337 263 358Q240 379 200 379Q136 379 105 322Z"  horiz-adv-x="400" vert-adv-y="1000"  />

      
      <glyph glyph-name="uni0438" unicode="&#x0438;" d="M72 408L112 408L112 81L402 431L402 0L362 0L362 325L72-25L72 408Z"  horiz-adv-x="474" vert-adv-y="1000"  />

      
      <glyph glyph-name="uni0439" unicode="&#x0439;" d="M72 408L112 408L112 81L402 431L402 0L362 0L362 325L72-25L72 408M185.50 538Q185.50 538 198.25 527.50Q211 517 248 517Q285 517 310.50 538Q336 559 344 590L378 573Q348 479 248 479Q148 479 118 573L152 590Q160 559 185.50 538Z"  horiz-adv-x="474" vert-adv-y="1000"  />

      
      <glyph glyph-name="uni043A" unicode="&#x043A;" d="M72 408L112 408L112 214L318 408L372 408L164 214L388 0L330 0L134 187L112 166L112 0L72 0L72 408Z"  horiz-adv-x="396" vert-adv-y="1000"  />

      
      <glyph glyph-name="uni043B" unicode="&#x043B;" d="M358 408L358 0L318 0L318 370L130 370L130 134Q130 67 106 35Q79-2 28-2Q22-2 8 0L8 38Q18 36 23 36Q57 36 76 63Q90 85 90 134L90 408L358 408Z"  horiz-adv-x="430" vert-adv-y="1000"  />

      
      <glyph glyph-name="uni043C" unicode="&#x043C;" d="M24 0L120 433L283 65L446 433L542 0L500 0L434 319L283-25L132 319L66 0L24 0Z"  horiz-adv-x="566" vert-adv-y="1000"  />

      
      <glyph glyph-name="uni043D" unicode="&#x043D;" d="M72 0L72 408L112 408L112 228L342 228L342 408L382 408L382 0L342 0L342 190L112 190L112 0L72 0Z"  horiz-adv-x="454" vert-adv-y="1000"  />

      
      <glyph glyph-name="uni043E" unicode="&#x043E;" d="M107.50 355.50Q107.50 355.50 138.25 386.25Q169 417 260 417Q351 417 412.50 355.50Q474 294 474 203Q474 112 412.50 50.50Q351-11 260-11Q169-11 107.50 50.50Q46 112 46 203Q46 294 107.50 355.50M137.50 78Q137.50 78 162.25 52.50Q187 27 260 27Q333 27 382.50 78Q432 129 432 203Q432 277 382.50 328Q333 379 260 379Q187 379 137.50 328Q88 277 88 203Q88 129 137.50 78Z"  horiz-adv-x="520" vert-adv-y="1000"  />

      
      <glyph glyph-name="uni043F" unicode="&#x043F;" d="M72 0L72 408L376 408L376 0L336 0L336 370L112 370L112 0L72 0Z"  horiz-adv-x="448" vert-adv-y="1000"  />

      
      <glyph glyph-name="uni0440" unicode="&#x0440;" d="M112 73L112-239L72-239L72 408L112 408L112 337Q171 417 272 417Q362 417 416 357.50Q470 298 470 207Q470 114 415.50 51.50Q361-11 270-11Q224-11 187 7.50Q150 26 136 41.50Q122 57 112 73M152 78.50Q152 78.50 173 52.75Q194 27 269 27Q344 27 386 78Q428 129 428 207Q428 288 382 333.50Q336 379 270 379Q205 379 157.50 334Q110 289 110 209Q110 130 152 78.50Z"  horiz-adv-x="516" vert-adv-y="1000"  />

      
      <glyph glyph-name="uni0441" unicode="&#x0441;" d="M399 365L399 312Q341 379 258 379Q184 379 136 328.50Q88 278 88 202Q88 120 139 73.50Q190 27 256 27Q337 27 404 100L404 46Q340-11 255-11Q163-11 104.50 49.50Q46 110 46 201Q46 294 104 355.50Q162 417 258 417Q337 417 399 365Z"  horiz-adv-x="442" vert-adv-y="1000"  />

      
      <glyph glyph-name="uni0442" unicode="&#x0442;" d="M150 0L150 370L8 370L8 408L332 408L332 370L190 370L190 0L150 0Z"  horiz-adv-x="340" vert-adv-y="1000"  />

      
      <glyph glyph-name="uni0443" unicode="&#x0443;" d="M102-239L202-7L8 408L54 408L225 45L374 408L420 408L148-239L102-239Z"  horiz-adv-x="428" vert-adv-y="1000"  />

      
      <glyph glyph-name="uni0444" unicode="&#x0444;" d="M280-239L280-7Q178-7 115 46Q46 104 46 204Q46 305 115 363Q177 414 280 414L280 667L320 667L320 414Q423 414 485 363Q554 305 554 204Q554 104 485 46Q422-7 320-7L320-239L280-239M280 31L280 376Q196 378 143 334Q88 288 88 204Q88 119 143 74Q196 31 280 31M320 376L320 31Q404 31 457 74Q512 119 512 204Q512 288 457 334Q404 378 320 376Z"  horiz-adv-x="600" vert-adv-y="1000"  />

      
      <glyph glyph-name="uni0445" unicode="&#x0445;" d="M8 0L173 214L22 408L71 408L200 240L327 408L376 408L228 214L392 0L343 0L200 188L57 0L8 0Z"  horiz-adv-x="400" vert-adv-y="1000"  />

      
      <glyph glyph-name="uni0446" unicode="&#x0446;" d="M72 0L72 408L112 408L112 38L332 38L332 408L372 408L372 38L432 38L432-110L394-110L394 0L72 0Z"  horiz-adv-x="444" vert-adv-y="1000"  />

      
      <glyph glyph-name="uni0447" unicode="&#x0447;" d="M300 0L300 169Q234 159 193 159Q128 159 97 181Q60 208 60 285L60 408L100 408L100 285Q100 229 127 210Q146 197 188 197Q235 197 300 207L300 408L340 408L340 0L300 0Z"  horiz-adv-x="412" vert-adv-y="1000"  />

      
      <glyph glyph-name="uni0448" unicode="&#x0448;" d="M72 0L72 408L112 408L112 38L302 38L302 408L342 408L342 38L532 38L532 408L572 408L572 0L72 0Z"  horiz-adv-x="644" vert-adv-y="1000"  />

      
      <glyph glyph-name="uni0449" unicode="&#x0449;" d="M72 0L72 408L112 408L112 38L302 38L302 408L342 408L342 38L532 38L532 408L572 408L572 38L632 38L632-110L594-110L594 0L72 0Z"  horiz-adv-x="644" vert-adv-y="1000"  />

      
      <glyph glyph-name="uni044A" unicode="&#x044A;" d="M8 408L148 408L148 238L245 238Q315 238 349 200Q378 168 378 119Q378 64 342 31Q309 0 244 0L108 0L108 370L8 370L8 408M148 38L244 38Q286 38 308 57Q336 80 336 119Q336 160 307 182Q283 200 242 200L148 200L148 38Z"  horiz-adv-x="416" vert-adv-y="1000"  />

      
      <glyph glyph-name="uni044B" unicode="&#x044B;" d="M72 408L112 408L112 238L209 238Q279 238 313 200Q342 168 342 119Q342 64 306 31Q273 0 208 0L72 0L72 408M112 38L208 38Q250 38 272 57Q300 80 300 119Q300 160 271 182Q247 200 206 200L112 200L112 38M388 408L428 408L428 0L388 0L388 408Z"  horiz-adv-x="500" vert-adv-y="1000"  />

      
      <glyph glyph-name="uni044C" unicode="&#x044C;" d="M72 408L112 408L112 238L209 238Q279 238 313 200Q342 168 342 119Q342 64 306 31Q273 0 208 0L72 0L72 408M112 38L208 38Q250 38 272 57Q300 80 300 119Q300 160 271 182Q247 200 206 200L112 200L112 38Z"  horiz-adv-x="380" vert-adv-y="1000"  />

      
      <glyph glyph-name="uni044D" unicode="&#x044D;" d="M38 10L38 52Q83 27 148 27Q231 27 280 80Q321 123 324 190L85 190L85 228L324 228Q316 302 257 346Q211 379 145 379Q82 379 42 358L42 398Q92 417 145 417Q240 417 298 366Q366 307 366 205Q366 106 305 47Q245-11 148-11Q81-11 38 10Z"  horiz-adv-x="412" vert-adv-y="1000"  />

      
      <glyph glyph-name="uni044E" unicode="&#x044E;" d="M112 228L182 228Q191 310 248.50 363.50Q306 417 388 417Q476 417 535 355.50Q594 294 594 203Q594 112 535 50.50Q476-11 388-11Q306-11 246 44.50Q186 100 182 190L112 190L112 0L72 0L72 408L112 408L112 228M271 77.50Q271 77.50 294.50 52.25Q318 27 388 27Q458 27 505 77.50Q552 128 552 203Q552 278 505 328.50Q458 379 388 379Q318 379 271 328.50Q224 278 224 203Q224 128 271 77.50Z"  horiz-adv-x="640" vert-adv-y="1000"  />

      
      <glyph glyph-name="uni044F" unicode="&#x044F;" d="M28 0L158 178Q111 180 78 208Q44 238 44 289Q44 348 81 379Q114 408 178 408L314 408L314 0L274 0L274 176L204 176L76 0L28 0M274 214L274 370L178 370Q136 370 113 352Q86 329 86 290Q86 252 112 232Q136 214 178 214L274 214Z"  horiz-adv-x="386" vert-adv-y="1000"  />

      
      <glyph glyph-name="uni0451" unicode="&#x0451;" d="M437 199L88 199Q84 124 133 75.50Q182 27 250 27Q298 27 335 52.50Q372 78 392 120L426 100Q403 56 359 22.50Q315-11 247-11Q154-11 100 49.50Q46 110 46 202Q46 303 104.50 360Q163 417 244 417Q328 417 384 356Q440 295 437 199M91 237L395 237Q387 299 345.50 339Q304 379 244 379Q183 379 141 338.50Q99 298 91 237M137.50 500.50Q137.50 500.50 132.25 505.75Q127 511 127 526Q127 541 137.50 551.50Q148 562 163 562Q178 562 188.50 551.50Q199 541 199 526Q199 511 188.50 500.50Q178 490 163 490Q148 490 137.50 500.50M303.50 500.50Q303.50 500.50 298.25 505.75Q293 511 293 526Q293 541 303.50 551.50Q314 562 329 562Q344 562 354.50 551.50Q365 541 365 526Q365 511 354.50 500.50Q344 490 329 490Q314 490 303.50 500.50Z"  horiz-adv-x="483" vert-adv-y="1000"  />

      
      <glyph glyph-name="uni0452" unicode="&#x0452;" d="M72 0L72 562L0 562L0 600L72 600L72 729L112 729L112 600L292 600L292 562L112 562L112 344Q153 417 237 417Q313 417 350 360Q370 328 370 257L370-100Q370-178 339-208.50Q308-239 263-239Q249-239 228-233L228-196Q240-201 259-201Q291-201 310.50-178.50Q330-156 330-92L330 257Q330 314 314 339Q290 379 234 379Q166 379 134 322Q112 283 112 212L112 0L72 0Z"  horiz-adv-x="442" vert-adv-y="1000"  />

      
      <glyph glyph-name="uni0453" unicode="&#x0453;" d="M72 0L72 408L292 408L292 370L112 370L112 0L72 0M235 620L278 595L173 467L143 483L235 620Z"  horiz-adv-x="300" vert-adv-y="1000"  />

      
      <glyph glyph-name="uni0454" unicode="&#x0454;" d="M398 365L398 312Q340 379 257 379Q189 379 141.50 335.50Q94 292 88 228L326 228L326 190L88 190Q90 118 139.50 72.50Q189 27 255 27Q336 27 403 100L403 46Q339-11 254-11Q163-11 104.50 49.50Q46 110 46 201Q46 294 103.50 355.50Q161 417 257 417Q336 417 398 365Z"  horiz-adv-x="441" vert-adv-y="1000"  />

      
      <glyph glyph-name="uni0455" unicode="&#x0455;" d="M288 351L254 333Q234 379 183 379Q151 379 132.50 359Q114 339 114 314Q114 294 127 279.50Q140 265 151 260Q162 255 194 242Q197 241 210.50 236Q224 231 228.50 229Q233 227 244.50 221.50Q256 216 262 211.50Q268 207 276.50 200Q285 193 291 185Q312 159 312 119Q312 54 272.50 21.50Q233-11 179-11Q127-11 89 18Q51 47 38 97L77 109Q87 70 115.50 48.50Q144 27 179 27Q218 27 244 52.50Q270 78 270 117Q270 149 252 166Q234 183 192 200Q188 202 177 206.50Q166 211 162.50 212.50Q159 214 149.50 218Q140 222 136.50 224Q133 226 125.50 230Q118 234 114.50 236.50Q111 239 106 243Q101 247 97 251Q93 255 90 259Q72 283 72 312Q72 358 103 387.50Q134 417 181 417Q260 417 288 351Z"  horiz-adv-x="342" vert-adv-y="1000"  />

      
      <glyph glyph-name="uni0456" unicode="&#x0456;" d="M72 408L112 408L112 0L72 0L72 408M117.50 517.50Q117.50 517.50 112.25 512.25Q107 507 92 507Q77 507 66.50 517.50Q56 528 56 544Q56 560 66.50 570.50Q77 581 92 581Q107 581 117.50 570.50Q128 560 128 544Q128 528 117.50 517.50Z"  horiz-adv-x="184" vert-adv-y="1000"  />

      
      <glyph glyph-name="uni0457" unicode="&#x0457;" d="M71 408L111 408L111 0L71 0L71 408M10.50 500.50Q10.50 500.50 5.25 505.75Q0 511 0 526Q0 541 10.50 551.50Q21 562 36 562Q51 562 61.50 551.50Q72 541 72 526Q72 511 61.50 500.50Q51 490 36 490Q21 490 10.50 500.50M122.50 500.50Q122.50 500.50 117.25 505.75Q112 511 112 526Q112 541 122.50 551.50Q133 562 148 562Q163 562 173.50 551.50Q184 541 184 526Q184 511 173.50 500.50Q163 490 148 490Q133 490 122.50 500.50Z"  horiz-adv-x="184" vert-adv-y="1000"  />

      
      <glyph glyph-name="uni0458" unicode="&#x0458;" d="M72 408L112 408L112-239L72-239L72 408M117.50 517.50Q117.50 517.50 112.25 512.25Q107 507 92 507Q77 507 66.50 517.50Q56 528 56 544Q56 560 66.50 570.50Q77 581 92 581Q107 581 117.50 570.50Q128 560 128 544Q128 528 117.50 517.50Z"  horiz-adv-x="184" vert-adv-y="1000"  />

      
      <glyph glyph-name="uni0459" unicode="&#x0459;" d="M358 408L358 238L455 238Q525 238 559 200Q588 168 588 119Q588 64 552 31Q519 0 454 0L318 0L318 370L130 370L130 134Q130 67 106 35Q79-2 28-2Q22-2 8 0L8 38Q18 36 23 36Q57 36 76 63Q90 85 90 134L90 408L358 408M358 38L454 38Q496 38 518 57Q546 80 546 119Q546 160 517 182Q493 200 452 200L358 200L358 38Z"  horiz-adv-x="626" vert-adv-y="1000"  />

      
      <glyph glyph-name="uni045A" unicode="&#x045A;" d="M72 0L72 408L112 408L112 238L342 238L342 408L382 408L382 238L479 238Q549 238 583 200Q612 168 612 119Q612 64 576 31Q543 0 478 0L342 0L342 200L112 200L112 0L72 0M382 38L478 38Q520 38 542 57Q570 80 570 119Q570 160 541 182Q517 200 476 200L382 200L382 38Z"  horiz-adv-x="650" vert-adv-y="1000"  />

      
      <glyph glyph-name="uni045B" unicode="&#x045B;" d="M72 0L72 562L0 562L0 600L72 600L72 729L112 729L112 600L292 600L292 562L112 562L112 344Q153 417 237 417Q313 417 350 360Q370 328 370 257L370 0L330 0L330 257Q330 314 314 339Q290 379 234 379Q166 379 134 322Q112 283 112 212L112 0L72 0Z"  horiz-adv-x="442" vert-adv-y="1000"  />

      
      <glyph glyph-name="uni045C" unicode="&#x045C;" d="M72 408L112 408L112 214L318 408L372 408L164 214L388 0L330 0L134 187L112 166L112 0L72 0L72 408M253 620L296 595L191 467L161 483L253 620Z"  horiz-adv-x="396" vert-adv-y="1000"  />

      
      <glyph glyph-name="uni045E" unicode="&#x045E;" d="M102-239L202-7L8 408L54 408L225 45L374 408L420 408L148-239L102-239M90 573L124 590Q132 559 157.50 538Q183 517 220 517Q257 517 282.50 538Q308 559 316 590L350 573Q320 479 220 479Q120 479 90 573Z"  horiz-adv-x="428" vert-adv-y="1000"  />

      
      <glyph glyph-name="uni045F" unicode="&#x045F;" d="M72 0L72 408L112 408L112 38L332 38L332 408L372 408L372 0L242 0L242-130L202-130L202 0L72 0Z"  horiz-adv-x="444" vert-adv-y="1000"  />

      
      <glyph glyph-name="uni0490" unicode="&#x0490;" d="M90 0L90 667L344 667L344 800L386 800L386 627L134 627L134 0L90 0Z"  horiz-adv-x="400" vert-adv-y="1000"  />

      
      <glyph glyph-name="uni0491" unicode="&#x0491;" d="M72 0L72 408L254 408L254 518L292 518L292 370L112 370L112 0L72 0Z"  horiz-adv-x="300" vert-adv-y="1000"  />

      
      <glyph glyph-name="uni2013" unicode="&#x2013;" d="M50 188L50 226L450 226L450 188L50 188Z"  horiz-adv-x="500" vert-adv-y="1000"  />

      
      <glyph glyph-name="uni2014" unicode="&#x2014;" d="M50 188L50 226L650 226L650 188L50 188Z"  horiz-adv-x="700" vert-adv-y="1000"  />

      
      <glyph glyph-name="uni2018" unicode="&#x2018;" d="M164 695L104 493L64 505L138 705L164 695Z"  horiz-adv-x="228" vert-adv-y="1000"  />

      
      <glyph glyph-name="uni2019" unicode="&#x2019;" d="M64 503L124 705L164 693L90 493L64 503Z"  horiz-adv-x="254" vert-adv-y="1000"  />

      
      <glyph glyph-name="uni201A" unicode="&#x201A;" d="M64-137L124 65L164 53L90-147L64-137Z"  horiz-adv-x="254" vert-adv-y="1000"  />

      
      <glyph glyph-name="uni201C" unicode="&#x201C;" d="M164 695L104 493L64 505L138 705L164 695M280 695L220 493L180 505L254 705L280 695Z"  horiz-adv-x="344" vert-adv-y="1000"  />

      
      <glyph glyph-name="uni201D" unicode="&#x201D;" d="M64 503L124 705L164 693L90 493L64 503M180 503L240 705L280 693L206 493L180 503Z"  horiz-adv-x="370" vert-adv-y="1000"  />

      
      <glyph glyph-name="uni201E" unicode="&#x201E;" d="M64-137L124 65L164 53L90-147L64-137M180-137L240 65L280 53L206-147L180-137Z"  horiz-adv-x="370" vert-adv-y="1000"  />

      
      <glyph glyph-name="uni2020" unicode="&#x2020;" d="M252 553L252 729L296 729L296 553L456 553L456 513L296 513L296-160L252-160L252 513L92 513L92 553L252 553Z"  horiz-adv-x="548" vert-adv-y="1000"  />

      
      <glyph glyph-name="uni2021" unicode="&#x2021;" d="M252 553L252 729L296 729L296 553L456 553L456 513L296 513L296 135L456 135L456 95L296 95L296-160L252-160L252 95L92 95L92 135L252 135L252 513L92 513L92 553L252 553Z"  horiz-adv-x="548" vert-adv-y="1000"  />

      
      <glyph glyph-name="uni2022" unicode="&#x2022;" d="M235 241Q235 241 214.50 261.50Q194 282 194 340Q194 398 235 439Q276 480 334 480Q392 480 433 439Q474 398 474 340Q474 282 433 241Q392 200 334 200Q276 200 235 241Z"  horiz-adv-x="668" vert-adv-y="1000"  />

      
      <glyph glyph-name="uni2026" unicode="&#x2026;" d="M74.50 3.50Q74.50 3.50 69.25 8.75Q64 14 64 30Q64 46 74.50 56.50Q85 67 101 67Q117 67 127.50 56.50Q138 46 138 30Q138 14 127.50 3.50Q117-7 101-7Q85-7 74.50 3.50M276.50 3.50Q276.50 3.50 271.25 8.75Q266 14 266 30Q266 46 276.50 56.50Q287 67 303 67Q319 67 329.50 56.50Q340 46 340 30Q340 14 329.50 3.50Q319-7 303-7Q287-7 276.50 3.50M478.50 3.50Q478.50 3.50 473.25 8.75Q468 14 468 30Q468 46 478.50 56.50Q489 67 505 67Q521 67 531.50 56.50Q542 46 542 30Q542 14 531.50 3.50Q521-7 505-7Q489-7 478.50 3.50Z"  horiz-adv-x="606" vert-adv-y="1000"  />

      
      <glyph glyph-name="uni2030" unicode="&#x2030;" d="M71 636Q71 636 89.50 654.50Q108 673 169 673Q230 673 267 636Q304 599 304 542Q304 485 267 448Q230 411 169 411Q108 411 71 448Q34 485 34 542Q34 599 71 636M99 476Q99 476 111.50 461.50Q124 447 169 447Q214 447 239 476Q264 505 264 542Q264 579 239 608Q214 637 169 637Q124 637 99 608Q74 579 74 542Q74 505 99 476M92 1L486 682L516 666L122-15L92 1M341 219Q341 219 359.50 237.50Q378 256 439 256Q500 256 537 219Q574 182 574 125Q574 68 537 31Q500-6 439-6Q378-6 341 31Q304 68 304 125Q304 182 341 219M369 59Q369 59 381.50 44.50Q394 30 439 30Q484 30 509 59Q534 88 534 125Q534 162 509 191Q484 220 439 220Q394 220 369 191Q344 162 344 125Q344 88 369 59M663 219Q663 219 681.50 237.50Q700 256 761 256Q822 256 859 219Q896 182 896 125Q896 68 859 31Q822-6 761-6Q700-6 663 31Q626 68 626 125Q626 182 663 219M691 59Q691 59 703.50 44.50Q716 30 761 30Q806 30 831 59Q856 88 856 125Q856 162 831 191Q806 220 761 220Q716 220 691 191Q666 162 666 125Q666 88 691 59Z"  horiz-adv-x="930" vert-adv-y="1000"  />

      
      <glyph glyph-name="uni2039" unicode="&#x2039;" d="M188 333L80 207L188 81L162 57L32 207L162 357L188 333Z"  horiz-adv-x="242" vert-adv-y="1000"  />

      
      <glyph glyph-name="uni203A" unicode="&#x203A;" d="M54 81L162 207L54 333L80 357L210 207L80 57L54 81Z"  horiz-adv-x="242" vert-adv-y="1000"  />

      
      <glyph glyph-name="uni20AC" unicode="&#x20AC;" d="M504 624L504 578Q444 636 346 636Q253 636 202 572.50Q151 509 141 411L454 411L441 375L137 375Q135 353 135 333Q135 313 137 293L411 293L398 256L142 256Q154 148 207 88.50Q260 29 346 29Q438 29 504 88L504 40Q448-10 342-10Q128-10 97 256L31 256L44 293L94 293Q92 311 92 334Q92 341 92.50 355.50Q93 370 93 375L31 375L44 411L97 411Q111 531 170.50 603.50Q230 676 342 676Q446 676 504 624Z"  horiz-adv-x="548" vert-adv-y="1000"  />

      
      <glyph glyph-name="uni2116" unicode="&#x2116;" d="M134 0L90 0L90 674L538 110L538 667L582 667L582-17L134 547L134 0M675 630Q675 630 693.50 648.50Q712 667 773 667Q834 667 871 630Q908 593 908 536Q908 479 871 442Q834 405 773 405Q712 405 675 442Q638 479 638 536Q638 593 675 630M703 470Q703 470 715.50 455.50Q728 441 773 441Q818 441 843 470Q868 499 868 536Q868 573 843 602Q818 631 773 631Q728 631 703 602Q678 573 678 536Q678 499 703 470M658 279L658 325L888 325L888 279L658 279Z"  horiz-adv-x="940" vert-adv-y="1000"  />

      
      <glyph glyph-name="uni2122" unicode="&#x2122;" d="M226 631L133 631L133 287L93 287L93 631L0 631L0 667L226 667L226 631M303 287L265 287L310 697L473 349L637 697L682 287L644 287L613 564L473 265L333 564L303 287Z"  horiz-adv-x="720" vert-adv-y="1000"  />

      

  </font>
</defs>
</svg>
